<svg xmlns="http://www.w3.org/2000/svg" viewBox="0 0 348 348" fill="none"><path d="M342.37 6.154v336.913H4.7V6.156z" stroke="#000" stroke-width="2"/><path d="M307.592 283.81c8.376 0 15.165 6.966 15.165 15.56 0 4.126-1.597 8.084-4.44 11-2.844 2.918-6.702 4.558-10.724 4.558-8.376 0-15.165-6.966-15.165-15.56 0-8.593 6.79-15.559 15.165-15.559z" stroke="#000" stroke-width="2"/><path fill="#000" d="M17.034 18.863h131.899v35.451H17.034zM166.933 18.863h35.451v35.451h-35.451z"/><path stroke="#000" stroke-width="1.654" stroke-linecap="round" d="M228.384 18.863h34.91v35.451h-34.91zM281.294 18.863h34.91v35.451h-34.91z"/><path fill="#000" d="M173.341 69.424h153.796v169.957H173.341z"/><path stroke="#000" stroke-width="1.654" stroke-linecap="round" d="M22.843 295.414h200.908v34.098H22.843zM22.494 254.967h97.338v34.797H22.494zM126.413 254.617h97.338v34.797h-97.338z"/><g aria-label="ReturN" style="line-height:1.25;-inkscape-font-specification:Mate;text-align:center" font-weight="400" font-size="27.995" font-family="DEATH FONT ver1.0" letter-spacing="0" word-spacing="0" text-anchor="middle" fill="#000" stroke-width=".7"><path d="M41.99 282.754l-.272-.082-.438.082-.656-.082-.082.082-1.094-.082v-.192l-.546-.164-.192.356-.082-.082-.082.164H38v-.274l-.657.274h-.492q-.136 0-.246-.028-.082-.054-.164-.136l-.082.082-.273-.192-.11.274-.273-.082.11-.547-.11-.191v-.356l.93-.355.164.082.109-.082-.11-.192.465-.273-.191-.082.191-1.476-.082-.082v-1.012h.082l-.082.274.164.382.192-.191-.356-1.094v-.355-.328-.3q0-.192.164-.302v-.164h-.164l.082-.109-.082-.082.082-1.093-.082-.082v-.11l.164-.082-.164-.082v-.355-.383-.355q0-.192.164-.274l-.273-.382-.437.19-.11-.081-.082.082.082.191-.164.082.274.082v.11h-.274l-.11.273.11.082-.11-.082-.273.164.192.273v.465l-.192.082-.164.82.082.11-.082.082.082.082v.109h-.19v.164h-.274l.191.547-.191 1.011-.274.192.11.082-.11.082.11.11v.081l-.192.082.082.11-.082.081.082.082v.192l-.164-.274h-.191v.274h.191l-.11.191.11.082-.11.192.11.082-.191.273.082.082-.547 1.914-.437.109.164.355v.082l-.082-.082-.082.082.082.192-.192.082.192.273-.082.191-.383-.082-.547.165-2.35-.082-.192-.274-.082.274-.192.082-.628-.082.082-.082-.082-.11v-.902l.902-.738.355-.356v-.355l.192-.11-.083-.081.165-.738.382-.356-.191-.191v-.082l.273-.192-.082-.355.356-1.176.082.082.191-.273-.082-.273.164-.356-.082-.11q.082-.163.082-.354 0-.192.137-.329.136-.136.136-.3 0-.192.11-.383l.082.11.082-.11-.082-.437.355-1.477.192-.082q-.192-.273-.465-.41-.274-.136-.547-.355-.273-.246-.547-.465-.273-.219-.437-.492l.082-.11-.273-.163q-.192-.274-.329-.602-.136-.328-.218-.629-.082-.328-.137-.628-.055-.328-.137-.711 0-.164.028-.356.054-.191.054-.355v-.355q0-.192.192-.301l-.082-.274.082-.082-.082-.273.355-1.175h.192l.355-.82h.191l.082-.274q.082-.191.274-.273.191-.11.273-.246.082-.137.273-.22.192-.081.356 0l.11-.273.081.082 1.285-.546h.274l.082.191.273-.082v-.191l.191.082.082-.082.465.191.164-.191-.082-.082H36.715q.191 0 .273.164l.465-.164.547.082.273-.082h.082l.082.164.11-.164v.164l.355.11.546-.274.547.082.082-.082.192.082.082-.082.93.164.273-.164h.437l.191.437-.082.273.082.192q-.191.082-.246.328-.027.219-.218.219-.164 0-.356.109-.191.082-.355.082 0 .164-.137.355-.137.192-.137.383v.41q0 .219-.109.383l.11.11v.71h-.192v.465h.191l-.109.191.11.082-.11.082.11.11-.274.082-.191.628v.274l.355.191-.164.192.082.273.082-.191h.11l-.192.355.082.11-.082.355.082.191-.164.082.082.082-.082.11.082.081-.082.356.082.191-.082.192.082.546h.191-.382l-.082.274.082.355h.191l.191.356-.382.382.191.082-.082.082.082.274h.191l-.191 1.203.191.273-.109.082.11.082-.192.738.191.273-.109.192.11.082v1.913h-.192l.191.465v.438h-.273l-.191.464.464.82-.109.083.11.82h.273l-.11.11.657.437.164.382.191-.273h.082v.164l.273-.082-.082 1.011h-.191zm-1.257-.082l.082.082.274-.082-.082-.082zm-9.404.082h.273v-.274h-.273zm7.026-.164l.082.082.11-.082-.11-.11zm-6.206 0l.11.082.081-.082-.082-.192-.109.082zm-.355-.11l.082.11.11-.274.081.082.273-.273v-.192l-.273-.082-.355.082.082.11-.082.082zm6.37-1.175l.109.082.164-.164-.164-.657-.11.11zm-3.828-.465l.11.11.082-.11-.082-.082zm-.082-.356l.082.082.192-.355-.082-.082h-.192zm5.112-.082l.082.082.082-.082-.082-1.093-.19.164.108.547zm-4.838-.656l.082.11.109-.11-.11-.164-.081.082zm4.838-.546l.082.109.082-.11-.082-.081zm-5.659 0l.082.109.274-.191-.164-.274-.274.274zm-1.831-.356l.109.082.082-.082-.082-.082zm1.913-.273l.11.082.273-.356-.11-.273-.273.355zm.192-1.094l.082.082.11-.082-.11-.191-.082.11zm3.362-.191h.274v-.273h-.274zm-3.444-.082l.082.082.082-.082-.082-.273-.082.082zm1.175-.191l.082.109.274-.656-.164-.274-.274.274.082.383zm4.374-.438l.082.082.11-.082-.11-.738h-.273zm-4.838-2.023h.382v-.273h-.382zm2.651-.71l.082.081.274-.082-.082-.11h.191v-.436l-.273-.11zm-3.007-.657l.082.11.192-.192-.192-.465-.082.11zm5.66-.082l.081.082.082-.082-.082-.547-.191.192.11.082zm-7.218-1.558l.11.11.163-.384-.082-.164-.273.274zm2.734-.082h.546v-.192l.657.11.628-.192-.082-.464v-.383-.41-.383q0-.191.164-.355l-.164-.192.082-2.815-.082-.11.082-.082-.082-.082.082-1.367-.082-.465-.109.082-.164-.355-.82-.465-.11-.164-.164.274-.109-.192-.082.192-.082-.11-.273.11.164.082h-.547v.191l-.273.273-.082-.109-.547 1.558.082.082-.164.739.082.082h-.082l-.11-.165-.164.356v.273h.164l-.164.082.164.383v.164l-.355.273.082.11-.082.082.465.191-.11.082.274 1.012-.082.082.273.355-.273.273.547.274.355.656.11-.11-.11.11.547.355zm-1.914-.274l.11.082.081-.082-.082-.464-.191.273zm6.561-.546l.11.082h.164v-.438l-.356.164zm-8.748 0l.11.082.081-.082-.082-.082zm3.117-.274l.082.082.082-.082-.082-.082zm4.1-.082h.274v-.273q0-.11-.055-.246-.055-.137-.137-.219l-.191-.191-.082.11.191.628zm1.64-.273l.083.082.082-.082-.164-.738-.11.082.11.383zm-7.572-.191l.082.082.11-.082-.11-.356-.082.082zm-.82-.465l.082.11.11-.11-.11-.164.11-.192v-.273h-.274zm8.201-.164l.082.082.11-.082-.11-.11zm.274-.274l.082.082.109-.082-.11-.109zm-7.108-.273l.082.082.109-.082-.11-.11zm.082-.191l.109.191.082-.11-.082-.163zm-.903-.082l.082.082.192-.192-.082-.082h-.192zm6.097-.11l.11.11.081-.11v-.273h-.273zm2.105-1.449l.082.082.11-.082-.11-.082zm-5.55-3.362l.082.082.192-.082-.11-.11zm6.37-1.094l.082.082.11-.082-.11-.11zM52.516 282.672l-.629-.164-.082.164-.109-.082-.082.082.082-.082-.437-.192-.082.192-.274.082-.656-.164-.246.164-.738-.082-.082.082h-.191l-.082-.164-.082.164v-.164l-.383-.11-.274.274-.71-.082-.192.082-.164-.082-.082.082-.82-.164-.11-.274-.355.164v.192l-.437-.192-.191.192-.082-.082h-.274v.164l-.082-.274-.383.11.11.082-.11.082-.082-.082-.191.082-.246-.082-.11.082-.273-.274-.71.274-.192-.164.191-1.012q.082-.164.301-.164.246 0 .383-.082.137-.11.3-.191.192-.11.274-.274l.355.82.11-.109v-.219-.273q0-.137-.11-.219-.082-.11-.164-.191l.082-.082-.082-.082.274-.547-.11-.191.11-.164v-.383h-.192l.082-1.34.274-.109.191-.71-.082-.083h-.273v.438l-.11-.082-.082.082.082-.082-.082-.082.192-.11-.192-.164.082-.547-.082-.546.274-.547-.192-.437.11-.192-.192-1.093.274-.63-.082-.355-.11.192-.082-.192v-.3-.328q0-.192.082-.328.11-.137.192-.22l-.192-.081v-.082l.383-.274-.191-.382-.274-.356.082-.164-.082-.273.082-.11-.082-.081v-.082h.192l-.192-.739v-.082l.082.192.11-.11v-.546h-.192v-1.34l.192.273.082-.082-.082-.82h-.192l.082-.191-.082-.082.192-.082-.11-.11.11-.081v-.192h-.192l.192-.082-.192-.082.192-.355-.11-.11h.192v-.437h-.274l-.273-.82h-.164l-.11-.274-.163.192.082.082h-.192l-.082-.192-.082.11-.465-.192.192-.273-.082-.164.082-.11-.082-.082.246-.546.11.191.081-.11.082.11.11-.11.082.11h.19v-.191l.438.191.63-.191.737.082.356-.082.628.082.082-.082 2.625.082.082-.082h1.832l-.11.082.11.11.792-.192.356.082.11-.082-.11.082v.191l.465.191.546 1.176-.273-.191-.082.082.437.355.356 1.832.273.082.192.628v.547l-.465.274h-.082l-.082-.192-.192.192h-.164l-.191-.356v-.11l.355.356.082-.082v-.218-.22q0-.108-.082-.136-.082-.055-.164-.137l-.273.082v.192l-1.285-1.804-.355-.383-.082.11-.082-.274.082-.11-.082-.082-.192.082-.738-.71-.082.082.082-.082v-.192l-.355.274-.164-.356-.738.274-.082-.082-.192.082-.273-.082-.711.437.082.465-.082.164-.273.191.082.082-.082.11.273.164v.19h-.191v.274l-.164.082.273.356-.11.082.192.11v.272h-.191l-.082.356v.191h.273l-.082.629.082.082-.082.082.082.355v1.094l-.355-.273-.192.19.274.274q.082.274.136.492.055.22.082.465.055.219.055.492 0 .274.273.356l.711-.192.274.11.273-.274-.082-.191.629-1.176.191.082.082-.082-.082-.191.164-1.066h.192v-.192l.273.082.273.274-.109.11.11.273-.11 1.53.11.164h-.192l.082.383-.082.082v.192h.191l-.109 2.241.11.192-.11 2.35-.355.165-.356-.082-.082-.274v-.628l.082.355.274-.355-.192-.465-.82-1.695-.793-.465-.738.274-.164.464.082.082-.082.985.082.082v.656q0 .164-.11.3-.081.137-.163.22l.082.108v.082l-.164.082.273.11.082.273-.082 2.324.082.11-.082.163.164 1.176-.082.547.082.546.273.082.082-.082h.11l-.11.082.192.274h.273l-.191-.356.465.192.191-.11.437.192h.356v-.274l.273.082.082-.164.465-.191.547-.71.082.081.355-.273-.164-.082h.164l.383-.82.246-.192v-.273l.11.11h.163v-.192l.383-.164-.11-.274.192-.464.082.082h.191v-.246h-.19l-.083-.192.355-.191-.082-.082.274.191.082-.109.082.191.11-.082.163.164.11-.164.246.164-.246.274v.191h.164q-.164.629-.41 1.23-.22.574-.41 1.203-.165.629-.41 1.258-.22.629-.575 1.175zm-4.429-.164l.082.082.11-.082-.11-.11zm-.082-.11h.164l-.082-.082zm-.546-.082h.273v-.355h-.273zm1.53-.273l.11.082h.355l-.191-.356-.355.192zm2.816-1.176l.274.192.164-.274-.164-.273zm1.176-.191l.082.11.437-.192-.355-.71-.082.081.082.355v.11l-.164-.11-.191.192zm-1.996-.164l.082.082.11-.082-.11-.082zm-5.522 0l.11.082h.163l.11-.274-.192-.437-.191.437.11.11zm-1.176 0l.11.082.082-.082v-.274l-.274.082.082.11zm8.967-.984l.082.082.082-.082-.082-.11zm-6.78-.274l.082.082.082-.082-.082-.191-.082.082zm6.124-1.011h-.082v-.164l.192-.11zm-7.846-1.531l-.082.191.082.082.274-.191-.082-.52-.192.246zm1.804-1.176l.082.082.274-.246-.164-.273h-.192zm-1.612-.164l.082.082.082-.082-.082-.547-.082.082zm1.694-1.367h.274l.11-.273-.11-.82-.274.629zm-.546-1.449l.11.082.081-.082-.191-.437-.164.246zm-1.422-.273l.082.082.192-.164-.11-.273-.164.19zm1.258-.164l.082.082.082-.082-.082-.11zm-.274 0l.192-.11-.11-.081-.164.082zm3.691-.273h.273l-.164-.739-.109.11zm-4.51-.11l.109.11.082-.11-.082-.164-.11.082zm1.721-1.257h.274v-.22-.218q0-.11-.055-.191-.027-.082-.137-.192l-.164.192.082.355zm-1.886-1.45l.082.11.192-1.094-.11-.546-.437.984.273.465zm2.87-1.804l.11.082.082-.082-.082-.082zm4.785-1.53v.19h.273l-.082-.464-.191.191zm-8.202-1.532l.082.082.082-.082-.082-.109zm8.749-.546l.109.082.082-.082-.082-.192-.11.11zm-.082-.192l.082.11.109-.11-.191-.355-.192.082zm-3.964-1.175l.082.11.082-.11-.082-.082zM61.183 282.672l-1.094-.274-.465.11-.082-.11-.082.192h-.355v-.082l.082-.11-.082-.164.082-.191-.082-.082.082-.274h-.274v-.082l.192-.109.273.11v-.192h.246v-.191h.192l.082.191.109-.082.355.082v-.547l-.082-.273.164-.082-.082-.082.082-.273.11.082.082-.356-.274-.547h.192v-.628h-.192v-1.094h.356v-.273l.191-.082-.465-.192v.192l.11.082h-.11l-.082-.164.082-.11-.082-.71.082-.274-.082-.984.082-.273-.082-.903.082-.191-.082-.082.082-.11-.082-.902h.192l.082-.71-.274-.274.274-.82-.082-.355h.246v-.192l-.356-.164v-.082l.192-.82-.082-.082-.11.082-.082-.191.274-.164.082-.383-.274-.71.192-.548-.082-.082.082-.082-.192-.109-.082.11v-.93l.192-.246q-.192-.191-.192-.465v-.547-.546q0-.274-.19-.438l.19-.465-.273-.437-.082.355.082.192h-.191l-.356-.192-.082.192-.547.082-.082-.082-.738.629h-.164l-.273.437-.356.11-.19.71h-.192v.274l-.438.546.082.082-.164.356-.191-.164-.355.984.082.082-.356.82h-.191v.191l-.274-.109.11-.164-.11-.11-.082.11-.082-.191-.109.191h-.355l-.082-.11h.164l.109.11.082-.273h-.355l.546-1.64-.109-.165.629-2.187h.191l.082-.246-.082-.383.274-.082.464-.82.246-.082.11-.273h1.175l.164.191 1.012-.191.437.082.082-.082.11.082.082-.082.082.082.109-.082.437.082.547-.082.082.191.383-.11.52.11v-.191h.19l.083.082.382-.082.165.082.082-.082.19.082.083.191.11-.191 1.065-.082.11.082 1.175-.082.63.191.081-.11-.082-.081.082.082.082-.082.547.273.738-.273.52.191-.082.164.546 1.367-.082.164.164.274-.164.191.274.082-.11.11.274.628h-.164v.164l.082.274h.164l.546 1.64-.082.273h.192l.082.52-.984.273-.192-.082v-.273l.082-.082-.546-.738.109-.082-.191-.082v-.274h-.192l.11-.547-.11-.273h-.355q-.082 0-.082-.137 0-.136-.082-.136l.082-.082-.465-.63.11-.355h-.274l-.191.082-.082-.191.082-.082-.274-.465-.437-.164v-.191h-.192l-.164.11-.738-.384-.164.192v-.192h-.191l-.273-.355.082-.082-.165-.082-.19.355h.19l.083.438q-.192.11-.247.246-.027.11-.082.246-.027.137-.027.328v.355h-.273v.274h.164l.11 1.093-.11.164.11.11-.11.164.11.11-.11.437.11.628-.11.11.11.082-.11.082.11.082-.11.11.11.081-.192.191q.082.082.136.22.055.136.055.327 0 .164.191.93.22.765-.19-.301l-.11.082.11 1.258-.11.109.11.082-.274.547q.164.082.218.218.055.137.055.328v.711l-.191.082.082.11-.082.164q.191.082.191.218v.875l-.11.547.11.984h-.273v.274h.164l-.246.164.164.19.082-.081.11 1.258-.11.082.11.546-.11.082q.11.383.11.738v.739q0 .355.136.683.136.3.3.574l.465.082.082-.082.192.082-.11.192.274.519-.082.191.082.274-2.87.082-.11-.082zm.273-.082l-.191-.082-.082.082.164.082zm.957-.438l.191-.547-.082-.109-.191.547zm.191 0l.11-.137-.082-.082-.11.137zm-1.257-.547l-.63-.191-.355.273.438.164zm-.164-.738l-.739-.355-.082.082.547.465zm.164-3.608v-.274h-.274v.274zm.437-.356l.055-.574-.11-.082-.054.574zm.055-.656l.054-.164-.082-.11-.109.192zm-.41-.656l.3-1.12h-.3l-.082 1.01zm.984-1.422l.082.11.219-.274-.274-.3-.11.355zm.055.301l.082-.082-.055-.11-.11.083zm.3-.082l.192.11.082-.083-.246-.218-.11.082zm-2.05-.738l-.082-.11-.082.11.082.082zm2.351-.191l.027-.192-.136-.055-.028.192zm-.027-.356l.054-.437-.136-.055-.055.437zm-1.969-1.449l.11-.273h-.274l-.273.082v.273h.355zm1.23-.465l.137.082.164-.273-.437-.137.027.274zm-.027-.574h.192l.082-.109-.247-.246zm-1.011.055l-.274-.191-.082.273h.274zm.519-1.613l.082-.164-.082-.137-.11.219zm.055.547l.273.027v-.273l-.273-.028zm.765-.82l.192.246.19-.301-.436-.574-.082.273zm6.452-.93l.219-.027.11-.246-.329-.11zm-7.71-.793l-.71-.382-.082.109.52.437zm2.078-4.702l-.082-.11-.082.11.082.082zM76.574 282.754v-.082l-.629-.164v.164h-.355l-.437-.164-.11-.274-.082.082-.437-.082v.192h-.192v-.192l-.437-.082.082.082.11-.355h-.274l-.191.191-.246-.191-.11-.52-.246-.191-.273-.164-.192.082v-.355h-.164v-.082l.082-.11-.164-.082-.109-.164.11-.191-.356-.711h-.191v-.52l.082-.109-.082-.164h.191v-.273h-.191l.082-.164-.246-.356.164-.191-.082-.082.164-.355-.082-.274h-.164l.082-.082-.082-.355.164-.438-.082-.109.082-.082-.164-.082.164-.082-.274-.547.11-.273h.246v-.356l-.082-.246-.274-.109.11-.246h.164l.082-.273-.082-.438h-.164l-.192-.71.192-.356-.192-.793.082-.11-.082-.245.082-.192-.082-.874.082-.274-.082-.082.082-.191-.082-.438.082-.273-.082-.082.082-.355-.082-.903.082-.164.192-.082-.082-.109.164-.082-.164-.082-.192-.547.438-.082v-.437h-.246l.082-.082-.192-.465.274-.52-.082-.081.082-.11-.356-.52.082-.19-.082-.082-.273.082.11-.082-1.15-.356v-1.148l.083-.082.164.082.191-.082.082.082.63-.082.245.082.711-.082.11.082.792-.082.52.082.355-.082.191.164.164-.164.192.164.082-.164.273.082.52-.082.355.082.465-.082.082 1.23-1.148.274v.164h-.192l-.082-.082-.082.191.164.355-.164 1.149.082.082-.191.628h.191v1.067l-.082.628.082.52-.082.082.082.273-.082.438.082.628-.082.082.082.356-.191.629h.191l-.082.082.082.82h-.191v.601h.191v.438l-.082.109.082 1.941-.191.629h.191v1.148l-.082.191.082.246-.191.274.273.793-.082.109.082.164-.082.082.082.11-.082.081.082.082-.082.082.164.11q.11.246.137.492.055.218.191.437.137.219.246.41.137.164.328.328l-.355.11v.164l.273.273.082-.082.082.246.192-.437-.11-.082h.11l1.312.355q.11-.191.328-.082.219.082.3-.082.083-.191.247-.191.191 0 .3-.082l.083-.274.355-.082.437-.984.274-.082-.192-.11h.192l.273-1.776h.164v-.164l-.082-.629.274-.164v-.273l-.192-.547.192-.52-.11-.902.356-.437-.356-.164v-1.176l.192-.082-.192-.082-.082-.355.192-.875q-.11-.11-.164-.191-.028-.082-.028-.164v-.22-.245.11l.082.081.11-.629h-.192v-.628l.082-.52-.082-.902.082-.164-.082-1.148h.192l.082-.629-.082-.082-.192.082v-.547l.192-.437-.274-.52.164-.191-.246-.082v-.273l.164-.164-.273-.11-.082.11-.082-.11-.082.192-.11-.082-.082.082-.082-.192-.082.11v-.274h-.273v.164h-.082l.082-.082-.273-.082v.164h-.164l-.192-.082.082-.273-.082-.082.082-.082-.082-.274.082.082.356-.164v-.273l-.082-.164h.355l.082.082.465-.082.355.164q.082-.082.246-.11.192-.054.356-.054h.71v.246h.192l.164-.246h.902q.164.082.191.164.055.082.055.273v.629l-.246.082.164.082-.164.082-.11-.082-.71.356-.438.984.082 3.28-.082.082.082.356-.082.11.082.081-.082.082.082.711-.164.355.164.63-.082 1.065.082.356-.164.437.164.793-.164.629.082.082-.082.082.164.11v2.022q-.082.465-.082.902 0 .438-.054.903-.028.437-.082.874-.028.438-.301.793l.082.082-.52 1.258h-.19l-.247.629-.465.164-.082.355-1.421.71-.164-.081q-.11.164-.328.164-.219 0-.41.055-.164.027-.356.027h-.328zm.957-1.04v-.546l-.082-.082-.355.52.355.19zm-1.777-.464v-.082l-.082-.082-.082.164.082.11zm3.199-.164v-.191l-.246-.164-.192.164zm1.257-.191l-.082-.082-.11.082.11.109zm-6.752-2.379v-.11l-.082-.081-.11.191.11.082zm.792-.547l.082-.082-.246-.273-.191.273.273.164zm-2.405-.164l-.082-.109-.082.11.082.081zm2.323-.464v-.164l-.273-.356-.082.274.273.355zm-.984 0v-.246h-.273v.246zm.793-1.067v-.082l-.082-.082-.082.164.082.11zm.11-.246v-.191l-.11-.082-.082.273.082.082zm-1.176-.191v-.164l.11-.355-.274-.274-.192.274.274.601zm-.438-.52v-.19l.082-.356h-.164l-.191.547zm2.324-1.066l-.11-.109-.081.11.082.081zm-1.421-.82v-.246h-.356v.246zm1.421-.437v-.164l-.11-.11-.163.192zm-1.886-.356v-.082l.273-.437-.164-.355-.273-.082v.956l.082.082zm.82-.52v-.546h-.273v.465l.164.164zm6.835-.081l-.082-.11-.11.11.11.082zm0-1.422l-.082-.109-.11.11.11.081zm-6.042-.273v-.191l.082-.52-.082-.082q-.082.082-.192.164-.082.082-.082.192v.437zm6.916-2.132l.082-.082-.246-.11v.192l.082.082zm-9.13-1.34v-.273l.081-.082-.191-.164-.164.437.164.164zm.081-.984l-.191-.082-.082.082.191.11zm-1.859-2.925l-.109-.082-.082.082.082.082zm3.718-.63l-.082-.081-.082.082.082.11zM84.202 282.754v-.164h-.192l-.082-1.012.274.082v-.164h.082l.191.273.164-.382.656-.438-.11-.11h.274l.11-.82-.11-.081.465-.82-.191-.465h-.274v-.438l.192-.464h-.192v-1.914l.11-.082-.11-.191.192-.274-.192-.738.11-.082-.11-.082.192-.273-.192-1.203h.192l.082-.274-.082-.082.19-.082-.382-.382.192-.356h.19l.083-.355-.082-.274h-.383.192l.082-.546-.082-.192.082-.191-.082-.355.082-.082-.082-.11.082-.082-.164-.082.082-.191-.082-.356.082-.109-.192-.355h.11l.082.191.082-.273-.164-.192.355-.191v-.273l-.191-.63-.274-.081.11-.11-.11-.082.11-.082-.11-.191h.192v-.465h-.192v-.71l.11-.11q-.11-.164-.11-.383v-.41q0-.191-.136-.382-.137-.192-.137-.356-.164 0-.356-.082-.19-.11-.382-.11-.164 0-.219-.218-.027-.246-.219-.328l.082-.191-.082-.274.192-.437h.437l.273.164.93-.164.082.082.191-.082.082.082.547-.082.547.273.355-.11v-.163l.11.164.082-.164h.082l.273.082.547-.082.465.164q.082-.164.273-.164H90.572l-.083.082.165.191.464-.191.082.082.192-.082v.191l.273.082.082-.191h.273l1.285.547.082-.082.11.273q.164-.082.355 0 .192.082.274.219.082.136.273.246.191.082.273.273l.082.274h.192l.355.82h.191l.356 1.175-.082.274.082.082-.082.273q.191.11.191.3v.356q0 .164.028.356.054.19.054.355-.082.383-.136.71-.055.301-.137.63-.082.3-.219.628t-.328.602l-.273.164.082.11q-.164.273-.438.491-.273.219-.546.465-.274.219-.547.355-.274.137-.465.41l.191.082.356 1.477-.082.437.082.11.082-.11q.11.192.11.383 0 .164.136.3.137.137.137.329 0 .191.082.355l-.082.11.164.355-.082.273.19.274.083-.082.355 1.175-.082.356.274.191v.082l-.192.191.383.356.164.738-.082.082.191.11v.355l.356.355.902.738v.902l-.082.11.082.082-.629.082-.191-.082-.082-.274-.192.274-2.35.082-.547-.164-.383.082-.082-.192.191-.273-.191-.082.082-.191-.082-.082-.082.082v-.082l.164-.356-.438-.11-.546-1.913.082-.082-.192-.273.11-.082-.11-.192.11-.082-.11-.191h.192v-.273H91.2l-.164.273v-.191l.082-.082-.082-.082.082-.11-.191-.082v-.082l.11-.11-.11-.081.11-.082-.274-.191-.191-1.012.19-.547h-.272v-.164h-.192v-.11l.082-.081-.082-.082.082-.11-.164-.82-.191-.082v-.464l.191-.274-.273-.164-.11.082.11-.082-.11-.273h-.273v-.11l.273-.082-.164-.082.082-.191-.082-.082-.109.082-.437-.191-.274.382q.164.082.164.274v1.093l-.164.082.164.082v.11l-.082.082.082 1.093-.082.082.082.11h-.164v.164q.164.109.164.3v.985l-.355 1.093.191.191.164-.382-.082-.274h.082v1.012l-.082.082.192 1.476-.192.082.465.273-.11.192.11.082.164-.082.93.355v.356l-.11.191.11.547-.274.082-.11-.274-.273.192-.082-.082q-.082.082-.191.136-.082.028-.219.028h-.492l-.656-.274v.274h-.547l-.082-.164-.082.082-.191-.356-.547.164v.192l-1.093.082-.082-.082-.657.082-.437-.082zm1.257-.082l-.273-.082-.082.082.273.082zm9.405.082v-.274h-.274v.274zm-7.026-.164l-.082-.11-.11.11.11.082zm6.205 0v-.11l-.109-.082-.082.192.082.082zm.356-.11l.082-.355-.082-.082.082-.11-.356-.082-.273.082v.192l.273.273.083-.082.109.274zm-6.37-1.175v-.63l-.11-.108-.163.656.164.164zm3.827-.465l-.109-.082-.082.082.082.11zm.082-.356v-.355h-.191l-.082.082.191.355zm-5.112-.082v-.382l.11-.547-.192-.164-.082 1.093.082.082zm4.839-.656v-.082l-.082-.082-.11.164.11.11zm-4.839-.546l-.082-.082-.082.082.082.109zm5.66 0l.081-.082-.273-.274-.164.274.273.191zm1.83-.356l-.108-.082-.082.082.082.082zm-1.913-.273v-.192l-.273-.355-.11.273.274.356zm-.191-1.094v-.082l-.082-.11-.11.192.11.082zm-3.363-.191v-.273h-.273v.273zm3.445-.082v-.191l-.082-.082-.082.273.082.082zm-1.176-.191v-.164l.082-.383-.273-.274-.164.274.273.656zm-4.374-.438l.191-.738h-.273l-.11.738.11.082zm4.839-2.023v-.273H91.2v.273zm-2.652-.71l-.191-.657-.274.11v.437h.192l-.082.11.273.081zm3.007-.657v-.437l-.082-.11-.191.465.191.192zm-5.659-.082v-.273l.11-.082-.192-.192-.082.547.082.082zm7.218-1.558l.082-.164-.274-.274-.082.164.164.383zm-2.734-.082v-.274l.547-.355-.11-.11.11.11.355-.656.547-.273-.274-.274.274-.355-.082-.082.273-1.012-.11-.082.466-.191-.082-.082.082-.11-.356-.273v-.164l.164-.383-.164-.082h.164v-.273l-.164-.356-.11.165h-.081l.082-.082-.164-.739.082-.082-.547-1.558-.082.11-.273-.274v-.191h-.547l.164-.082-.273-.11-.082.11-.083-.192-.109.192-.164-.274-.11.164-.82.465-.163.355-.11-.082-.082.465.082 1.367-.082.082.082.082-.082.11.082 2.815-.164.192q.164.164.164.355v1.176l-.082.464.629.192.656-.11v.192zm1.914-.274l.082-.19-.192-.274-.082.464.082.082zm-6.562-.546l.082-.192-.355-.164v.438h.164zm8.749 0l-.11-.082-.082.082.082.082zm-3.117-.274l-.082-.082-.082.082.082.082zm-4.1-.082v-.191l.19-.629-.081-.11-.192.192q-.082.082-.136.219-.055.137-.055.246v.273zm-1.641-.273v-.273l.11-.383-.11-.082-.164.738.082.082zm7.573-.191v-.274l-.082-.082-.11.356.11.082zm.82-.465l.082-.629h-.273v.273l.109.192-.11.164.11.11zm-8.202-.164l-.082-.11-.109.11.11.082zm-.273-.274l-.082-.109-.11.11.11.081zm7.108-.273l-.082-.11-.11.11.11.082zm-.082-.191l-.11-.082-.081.164.082.109zm.902-.082v-.192h-.191l-.082.082.191.192zm-6.096-.11l.082-.273h-.274v.273l.082.11zm-2.105-1.449l-.082-.082-.11.082.11.082zm5.55-3.362l-.165-.11-.11.11.192.082zm-6.37-1.094l-.083-.11-.109.11.11.082zM108.013 283.054l-.464-.628.082-.164-.274-.739.082-.082-.136-.109-.082-.355-.082.082v-.793l-.274-.11q-.054-.218-.191-.355-.11-.164-.11-.328.028-.191 0-.3-.027-.137-.109-.329-.082-.082-.164-.191-.055-.11-.11-.192-.027-.082-.081-.218-.028-.164-.11-.246l.11-.082-.192-.63.11-.272-.356-.028v-.082l.301-.054-.191-.137.027-.164h-.164l.082-.082-.3-.656-.22.054.055-.628.164-.137-.355-.328-.11.082-.765-2.105.11-.3-.274-.821-.273-.11.218-.163-.628-.957-.082-.985-.329-.3.247-.629-.438-.191.191-.164-.164-.11-.136-.3-.274-.028-.054.547h-.164l-.028.273.055.082-.082.082.164.082.055.192-.328.957.136.273-.136.355.082.11-.219.41.082.082-.082.082-.027 1.148-.11.11.11.737-.301-.574-.191.274.382.465-.109.273h.164l-.082 1.777-.273 2.05.054.164-.191.957.082.11-.137.683.055.3-.137.329.082.082.192-.055.218.656.164.028.055.164-.219.601.328.191.137-.41-.055-.273.082-.082-.054-.082h.164l.054.355.247.028.027-.274.082.383-.137.164.11.11-.192.054.137.383-.11.164-.246-.027-.109-.11-.164.082-.082-.11-.355.165-.328-.383-.22.137.083.11-.52.026v-.19h-.191l-.082.081.11-.246-.247-.027-.027.273h-.71l.027-.191-.602-.055-.219.082-.109-.547-.191-.027-.055-.164-.082.055v-.192l.11-.136-.137-.22.054.138.793-.301.191.11.493-.384.273-.082.191-.355-.191-.793.3-.328-.109-.383.11-.355-.082-.082.191-.164v-.793l.082-.082-.137-.219.22-.574-.056-.355.11-.191v-.793l.082-.082-.246-.219.109-.055-.027-.984.136-.082-.054-.547.246-.628h-.192v-.11l.137-.082-.055-.71.137-.247-.027-.82.11-.054-.11-.11.273-.683.055.164.328-.328-.191-.164-.082.054-.055-.164.082-.191-.055-.082.082-.082-.137-.273.11-.274-.164-.273h.191l.137-.574-.055-.219.082-.055v-.792l.11-.274-.137-.465.246-.683-.11-.547-.273-.027v-.082l.11-.356q-.274.055-.383-.082-.11-.164-.328-.218-.219-.055-.328-.192-.11-.164-.301-.273l-.137-.383.192-.136-.137-.465.465-.137.355.11h.71l.329.109h.738l.328.11.273-.056.165.11.273-.055.437.191.192-.136.164.082.191-.055.3.738-.218.082.246.301-.11.328.329.191-.11.11q.165.273.329.574.164.273.273.601.11.328.164.63.055.3 0 .655l.191.028.192.738h.191l-.11.109.903 2.761-.11.055.247.219.984 3.499.191.027.137 1.094.273.027.383-.957-.3-.465h.136l.355-.683-.41-.219.055-.71.11-.192.273-.055-.219-.464-.11.164.083-.793.082-.082.027-.984.082-.055-.082-.11.191-.081-.082-.082.11-.274-.164-.027.054-.41.082-.082-.054-.191.164-.082-.164-.164.191-.11-.164-.082.027-.355.11-.082-.055-.356h.164l.328-.601-.328-.3.055-.602.3-.164.028-.274-.41-.191v-.082l.109-.191-.082-.082.082-.082-.574-.52-.11.274-.164-.301-.164.082-.437-.219-.055-.437.137-.356-.082-.082.984-.11.766.438.382-.328.192.11.164-.137.082.164.11-.164.081.027.438.11.628-.028.438.137.082-.082q.164.11.136.246v.273q0 .137-.027.274 0 .11-.027.3l-.192-.027-.082-.082-.082.164-.3.055.082.11-.82.163-.055-.082-.219.246.082.082h-.191l-.027.356-.055 2.406-.192.956.11.11-.219.957.11.082-.22.984.11.082-.191.984.082.082-.274.847.055.22-.164.874.055.273-.192.356h.164l-.136.52.082.109-.301 2.269.082 1.093-.219.957.11.11-.22.956.11.11-.164.683v-.164l-.246-.027-.027.246q.082.191.137.355.082.137.054.328-.027.164-.054.356 0 .164.082.328l-.164.765-.082-.027-.356-.11zm1.203-.546l-.082-.11-.082.11.082.082zm-9.213-1.012l-.082-.082-.082.082.055.11zm.274-.055l.054-.437-.082-.082-.136.52.082.081zm8.42.93l.055-.356-.274-.027-.054.356zm-6.179-1.066l-.082-.082-.082.164.055.109zm6.616-.766l-.082-.082-.082.055.082.11zm-.054-.355l.246-.438-.301-.574-.219 1.066h.192zm-1.34-.848v-.082l-.055-.11-.109.165.082.082zm1.804-.11v-.163l-.136-.219-.137.356zm-.3-.628l.328-.52-.274-.027-.027.192-.137-.137-.136.11.164.464zm-.11-.656l-.109-.082-.082.082.082.082zm.082-.055l-.054-.136-.137.109zm.356-1.859l.11-.082-.247-.11-.027.165.082.11zm-3.336-.492l.055-.437-.082-.137-.137.547.082.082zm1.695.246v-.164l.11-.191-.328-.192-.055.52zm1.313-.054l.027-.274.137-.328-.356-.027-.136.601zm-1.176-1.531l.027-.192.137-.437-.137-.438-.3 1.04zm1.367-.41v-.082l-.055-.11.137-.601-.246-.028-.219.246.055.547.246.082zm-1.941-.985l.027-.273-.246-.219-.082.055.055.11-.082.081.246.301zm-1.394-.355l.11-.082-.165-.273-.219.464h.192zm1.011-.164l-.246-.219-.11.11.247.19zm.246-.055l-.054-.11-.11.083.082.11zm-1.12-.3v-.083l-.055-.082-.11.137.082.11zm-5.277-1.149l-.055-.082-.109.055.082.137zm4.566-.52l.027-.19-.219-.192-.11.355zm.027-.355l-.082-.109-.137.082.11.11zm.11-.984l.027-.273-.192-.164-.137.41zm-1.86-.601l.028-.274.109-.191-.246-.191-.3.136.054.465zm-1.722-.656l.11-.22-.165-.026-.191.164.137.191zm-1.832-4.976l-.082-.082-.11.055.11.11z" style="-inkscape-font-specification:'DEATH FONT ver1.0'"/></g><g aria-label="Pass ON" style="line-height:1.25;-inkscape-font-specification:Mate;text-align:center" font-weight="400" font-size="27.007" font-family="DEATH FONT ver1.0" letter-spacing="0" word-spacing="0" text-anchor="middle" fill="#000" stroke-width=".675"><path d="M132.197 282.038l-.158-.08v-.263l.263-.343-.184-.448q.079-.185.263-.08.185.08.317-.052l.264-.264.21-.21.08-.186h.263v-.184l-.079-.08.264-1.054-.185-.607.106-.633h.158v-.263l-.158-.264-.106.184v-.448l.106-.527-.106-.159.106-.105-.106-.08h.185v-.342l-.079-.106.08-.079-.186-.976h.185v-.263h-.185l.185-.08.08.08.184-.422-.343-.264-.106-.264.264-.976-.158-.263-.106.184v-.369l.264-.527-.264-.159v-.369h.264v-.264h-.158v-.87l.158-.264.106.08.079-.264-.343-.08-.106-.184.106-.08-.106-.184.106-.079-.106-.606.185-.106-.079-.158h.158v-.264h-.264v-.448l.185-1.583-.185-1.055.185-.079-1.134-.79-.105-.265-.159.264h-.184l-.08-.791v.079l.08.08.184-.344-.184-.263-.08.079.08-.08.079.08.184-.159.08.08.184-.08.343.08.633-.08.079.08.08-.08.105.08 1.846-.08.527.159.686-.159.185.159.263-.159.08.08.105-.08.343.264.79-.264q.344.08.74.132.395.027.738.132.37.08.66.211.316.132.685.317v.342l.343.185.079-.185h.105l.264.449.264.079q.158.185.29.395.132.211.21.449.106.21.186.448.105.211.184.475l-.079.079.264.87-.264-.079v.264l.264.264-.106.343.106 1.055-.106.263-.263.106.369.263-.264.686.08.106-.265.79h-.263l-.264.871-.448.449h-.159l-.105.263h-.528v.264l-.685.264-.264-.106v.185-.185h-.264l-.105.264-1.055.185v-.264h-.528v.185l-.79.079-.265-.185-.079.185v-.185h-.263l-.264.791.079.106-.08.263.08.159-.08.105.08.264-.08.079.08 1.24h-.343v.158h-.08l-.105-.158-.079.263.185.159-.106.263h.185l.08-.079.184.08.079.79v-.158l-.08-.105-.078.527h.158v.185l-.08.079.185 1.846-.105.106q.105.158.185.342.079.185.21.317.132.132.317.21.185.08.343.186l.264.079v1.055l-.422.079-.106-.08-.079.08-.185-.08-.606.08-.08-.08-.79.08-.106-.08-.343.08-.079-.08-.791.08-.106-.08-.158.08-.184-.08-.185.08-.08-.08-.184.08-.343-.159v.159-.159h-.184l-.264.159-.08-.159-.131.132q-.053.027-.185.027h-.395zm5.38-.159v-.184h-.448v.184l.263.159zm-1.055-.369v-.343l-.105-.079-.08.422.08.106zm1.134-.422l.08-.105-.423-.264v.448h.264zm-1.398-.184l-.105-.08-.08.08.08.079zm-3.428-.08l-.106-.105-.079.106.08.079zm.87 0v-.632l-.079-.08-.448.185v.264l.263.079.185.264zm1.846-2.215v-.422l-.079-.264h-.264v.422l.264.37zm-.712-2.373v-.343l-.079-.08-.079.423.08.105zm1.583-.528v-.158h-.343l-.08.606h.343zm.184-.264l-.079-.079-.105.08.105.105zm1.134-2.716l-.079-.08-.079.08.08.079zm.264-.449l.105-.158-.184-.184-.185.448h.185zm-1.582-.342l-.08-.08-.079.08.08.079zm3.876 0l-.342-.08-.106.08.37.079zm-3.692-.08l.08-.184-.264-.264-.08.449zm3.429-.105v-.08l-.264-.447-.08.263.265.37zm-1.24-.08v-.342.158h.264v-.263l.105.369.528-1.424.158-.08-.079-.079.264-.369-.08-.158.159-.264-.08-.791q.08-.105.08-.264v-.395q0-.238.079-.317.106-.079.185-.264l-.264-.448.105-.079-.184-.264h.184v-.184l-.105-.08.105-.263-.184-.449.184-.422-.105-.105-.08.185h-.078l-.185-.343.08-.185-.08-.079-.185.158q.106-.158-.026-.29-.132-.132-.185-.21-.052-.106-.184-.238l-.211-.211-.976-.528-.08.08-.078-.08-.106.159-.685.633-.185 2.268.08 1.055-.265.184.264.08v.263h-.264v.528l.264.105v.343l-.079.079q.08.37.08.765v1.53q0 .342.184.712h.184l.686-.185.264.08zm-3.771-.447v-.607l-.185-.185-.158.449.079.343zm-1.319-.264v-.08l-.079-.078-.105.158.105.105zm5.987-.264l-.106-.079-.079.08.08.105zm2.98-.158l-.079-.106-.105.106.105.079zm-6.145-.185l.422-1.134-.08-.37h-.263v.186l.08.606-.344.264-.184.448.264.08zm6.33-.079l-.106-.105-.079.105.08.08zm.079-.264l-.08-.105-.105.105.106.08zm.448-.263l-.105-.106-.08.106.08.079zm-2.637-.528l-.106-.105-.079.105.08.08zm2.189-.264v-.184l.184-.343h-.369l-.158.264.08.263zm.606-.896v-.158l.106-.449-.37-.184v.79zm-.079-1.74l-.079-.106-.105.105.105.08zm-9.679-1.768v-.264h-.264v.264zM144.803 281.959l-.184-.08v-.263l.079-.238h-.317l.317-.184-.238-.08-.079-.263.159-.08.079.08.527-.264v-.158l.08.158.263-.422.08.08q.078-.08.21-.159t.132-.237q0-.185.026-.264.053-.106.053-.264l-.079-.105.422-.686-.08-.237h-.184l.185-.106-.08-.237h.159l.185-1.213.237-.08.105-.527-.105-.08h.185v-.263l-.08-.079.08-.343h.263v-.422h-.184v-.184h.184l.08-.501-.08-.08.238-.685-.08-.264.423-.08v-.342h-.238l-.184.08.263-.423-.079-.264.158-.263-.079-.08.264-.5-.105-.106h.184v-.765l.158-.079-.079-.185.08-.079-.08-.079.264-.765.158-.105-.079-.501q.08-.185.159-.396.105-.21.131-.422.053-.21.053-.422 0-.21.185-.395l-.106-.159.185-.448.079.185.264-.422-.08-.106.159-.343-.158-.343.5-1.872-.078-.08.158-.447.185-.08-.08-.079.08-.422-.08-.105.159-.238.079.08.87-.08.08.08.078-.08.343 1.108-.079.08.185.078.079.607-.422.185.58.237.527 2.242h-.184v.158l.343.264.263 1.107-.079.185.422 1.108h-.158v.263l.08.08.078-.08-.158.159.237.105.792 3.244-.106.158.106.106.079-.106.158.95-.08.079q.265.264.344.66.079.368.158.764l.21.791q.133.37.238.712l-.184.343.263.158.343 1.372-.184-.08-.08.08.264.527h.159v.08l-.08.079.185.105-.105.08.105.078-.105-.079-.08.264.343.237.08-.158-.08-.08.765.423.106.95-.185.078.185.08-.185.079-.264-.08.106-.079-.528-.079v.159l-.079-.08q-.079.159-.21.159h-.739l-.08-.08-.078.08-.106-.08-.237.08-.686-.08-.264.08v-.159l-.606-.079-.422.159.079.079h-.158l-.185-.238-.158.08-.08-.08-.263.159.079-.08-.422-.184v.184l-.185-.079v-.263l.106-.422-.106-.185.106-.079.343.08.079-.08.079.08.079-.08.264.08.184-.265-.184-.58h.264v-.185l-.185-.764-.237-.08v-.448h-.185l.079-.08-.158-.5.079-.264-.08-.185.08-.079-.08-.343.08-.263-.343-.08v-.263l.08-.08-.16-.078h.08l.343.158.527-.237q-.105-.185-.237-.185H151.318l-.106.08q-.079-.08-.21-.16-.133-.078-.265-.078H150.184l-1.266.079-.185-.08-.079.08-.08-.08-.342.159q0 .264-.185.475-.158.21-.158.527 0 .29-.053.554-.052.237-.131.501l-.343.185.263.079v.264l-.184.685-.08-.105-.078.343.158.527-.237.08.342.184v.343h.159l.079-.106.105.106.158-.106.528.185.158.844-.264.264.106.079-.264-.08-.343.08-.079-.08-1.213.08-.079-.08-.185.08-.158-.08-.184.08v-.159h-.238l-.527.159-.159-.08zm.501-1.266l-.079-.106-.079.106.08.079zm8.704-2.11l.132-.37-.106-.342h-.29l.026.474zm-1.609-.791l.08.079.052-.343-.185-.132-.053.343zm-.026.817l.263-.026.211-.739-.29.027zm-4.59-1.187l.106-.343h-.185l-.342.264.342.158zm5.117-.738l.29-.027.158-.316-.131-.264-.264.053zm-4.8-1.477l.132-.633h-.29l-.053.37zm2.875-.607v-.079l.079-.105-.528-1.45.106-.16q-.106-.342-.185-.685t-.184-.685q-.08-.343-.264-.686-.158-.343-.158-.686l-.238.08-.184 1.028-.343.184.264.08v.079l-.765 2.558.079.264-.08.184.686.238.159-.08.079.08 1.292-.159.08.08zm1.318.106l.132.079q.053-.08.08-.158.052-.106.052-.185v-.237q0-.132-.026-.211h-.264l-.08.606zm.844-1.82l.08-.37-.106-.105-.08.37zm-.369-1.292v-.159l-.343-.263-.079.079.08.343zm-1.609-.053l.027-.396h-.132l-.053.37zm1.688-1.134q-.079-.08-.184-.132-.08-.053-.159-.053h-.422l-.079.106-.184-.185-.264.185 1.213.158zm-.263-.264l-.159-.079-.079.08.158.078zm-2.216-.158l-.606-.185v.185l.184.158zm-1.899-.185l-.158-.079-.08.08.16.078zm.58-.132l.106.08.105-.159-.131-.29-.159.238zm-.395-.29v-.263l-.08-.08-.105.343.106.08zm2.347-.395l.106-.422-.211-.37-.106.396zm-.765-2.532l.29.158.027-.396-.053-.29-.264-.026-.079.448zm.844.316l.027-.474-.053-.106-.08.528zm.08.449l.21.184.132-.29-.237-.158-.106-.185-.105.343zm.078-1.082l.264-.026-.026-.343-.264.026zm.159-3.455l.079-.079-.422-.158v.158l.264.185zM163.001 282.038l-.158-.159-.08.08v-.159q-.263 0-.474-.026-.21-.053-.422-.185-.21-.132-.422-.21-.21-.106-.395-.264l-.08-.264-.527-.158q-.158.079-.264.263-.079.159-.132.37-.026.21-.21.342-.159.132-.317.211l-.08-.079-.105.08-.079-.159-.5.158-.08-.079.158-.343-.079-.079.158-.184q-.158-.08-.21-.211-.027-.132-.027-.29v-.29-.317l.158-.422-.158-.95.158-.685-.158-.765.08-.079-.08-.343.158-.343q-.079-.079-.132-.21-.026-.133-.026-.238v-.264-.316l.158-.422-.158-.844.237-.185-.079-.079.159-.08.263.08v.185h.185l.237-.185.106.264-.106.079.264.95-.264.342.343.158-.079.264h.158l.343 1.108-.079.079.185.343-.106.079.106.105-.106.238.343.079.185.686-.185.184.343.158.105-.079.159.264-.08.08.238.078.184.422.264.106-.184.079.184.079v.343h.158l.264-.08.923.423.106-.08.158.159.422-.08v-.158l.765-.184.263-.422.08.079.342-.08.08-.263-.08-.079.08-.08-.159-.105.264-.316-.105-.106.342-.158-.158-.079q.08-.184.08-.395 0-.211.131-.37.132-.184.29-.343.185-.184.106-.448l-.264-.079.08-.158-.08-.106-.08.106-.342-.686.08-.264h-.185l-.238-.5.08-.528h-.344l-.079.105-.343-.527-.079.079-.105-.501-.238.079-.105-.264-.08.264v-.264h-.29q-.131 0-.21-.105-.08-.132-.211-.159-.132-.052-.211-.158v-.158l-.343-.08v-.263l-.528-.079-.237-.422-.264.08-.184-.08.184-.106-.606-.237-.686-.686v-.527l-.501-.08-.158-.922h-.264v-.185l-.264-.079-.263-.686.105-.343h-.185v-.843l.08-.343-.159-.343.159-.08-.159-.105v-.079l.159-.264-.08-.158h.185v-.343h-.264v-.343l.08-.342h.184v-.264l-.105-.08.184-.158-.079-.184.501-.686.264-.079v-.422h-.185l.343-.264-.079-.079.686-.606.263.105v-.264l.66-.263.606.184q.08-.184.211-.184.132 0 .211-.027.106-.053.264-.053h.264l.422.159.343-.08.58.264v.159l.791.342-.105.106.263.316.08-.079.342.08.08-.08-.08-.158.264-.185-.185-.079.343-.079-.158-.184.158-.08-.079-.263.08-.08.263.08.185-.158-.106-.08h.528l.079.58-.08.106.08.158-.264.08v.184l.08.08.105-.08.158 1.53-.08.158.08.791-.08.317.08.105-.08.58.159.185-.158.08.158.263-.08.158.08 1.029-.08.079.08.95h-.158v.158h-.343l-.08-.08-.342.08-.08-.159.159-.079-.08-.105.08-.08-.08-.342h-.184v-.08l.106-.158-.449-1.292.106-.079-.106-.08.106-.105-.185-.079-.079-.263h.08l.078.263.185-.343-.422-.079-.185-.422h.185v-.527h-.185l-.079.105v-.184h-.158l-.184-.686-.422-.237-.08-.528h-.369q-.079 0-.079-.132t-.079-.132l.08-.079-.317-.158-.343.08-.528-.264-.079.079-.079-.08q-.185.185-.396.238-.21.026-.395.105-.158.08-.29.264-.132.158-.29.343v-.185h-.159l-.105.105.105.08-.105.079.185.079-.607 1.53.079.527-.158.343.343.158q0 .264.079.396.079.131.158.316.106.158.211.343.132.158.237.316l1.108.844.08-.079.685.422v.185l.844.343v.158l.343.08-.08.105.159.079.105-.08 1.345 1.108.106.422.079-.184q.264.263.475.606.21.343.316.686l.264.686q.132.343.21.685l-.078.238.079.105.105-.105.08 2.4-.185.422.105.606-.606 1.688-.264.185.08.079-.08.079.08.106-.238.342h-.343v.317l-.08-.08-.342.423-.106-.08-.079.344-.342.079.079.105-.422.158-.08-.079-.079.159-.764.079-.264-.159-.08-.158-.078.158h-.106l-.079-.263-.158.422h-.106v-.238h-.237v.238zm2.057-.66v-.184h-.158l-.105.079.184.184zm-3.402-.184v-.343l-.105-.08-.159.423zm3.824-.08l-.079-.078-.079.079.08.079zm.08-.078l-.08-.106-.079.106zm.527-.106v-.316h-.264v.316zm-5.196-2.374l-.105-.079-.08.08.08.079zm-.448-.079l.105-.263h-.263v-.08l.158-.342-.08-.08-.078.159-.343.422.079.079.08-.08.263.264zm-.765-.184v-.501l-.079-.08-.08.58.08.08zm8.018-.159l-.08-.105-.079.105.08.08zm-.686-.105v-.08l-.08-.078-.078.158.079.105zm-6.646-.66l-.08-.105-.078.106.079.079zm4.773-2.4l-.079-.078-.079.079.08.079zm.185-.078v-.264h-.264v.264zm1.609-.343v-.422h-.158l-.185.237.264.264zm-1.187 0v-.185l-.08-.422h-.342v.264l.08.343zm-1.029-.95v-.237l-.158-.185-.105.422zm-2.136-.58l-.079-.105-.079.105.08.08zm4.273.08v-.423l-.264-.606-.08.764.08.264zm-2.057-.08v-.264h-.238v.264zm.685-.343l.185-.606-.422-.159v.501l.158.343zm-4.694-1.371l-.158-.08-.08.08.159.079zm3.507-.264v-.58l-.079-.106-.184.686zm-4.694-.686v-.079l-.08-.079zm4.193-.5l-.105-.08-.08.08.08.078zm-3.164-.607l.079-.58h-.264v.58l.105.105zm-1.372-.159v-.422l-.158-.263-.185.184.264.58zm-.158-.765l-.106-.079-.079.08.08.079zm.237-.263l-.079-.08-.079.08.08.079zm6.831-1.029l-.08-.079-.078.08.079.105zm-6.91-1.609v-.184l-.079-.08-.08.264.08.08zm3.93-2.136l-.264-.079-.08.08.265.078zm3.93-1.108l-.106-.079-.08.08.08.079zM174.447 282.038l-.158-.159-.079.08v-.159q-.264 0-.475-.026-.21-.053-.422-.185-.21-.132-.422-.21-.21-.106-.395-.264l-.08-.264-.527-.158q-.158.079-.264.263-.079.159-.131.37-.027.21-.211.342-.159.132-.317.211l-.08-.079-.105.08-.079-.159-.5.158-.08-.079.158-.343-.079-.079.159-.184q-.159-.08-.211-.211-.027-.132-.027-.29v-.29-.317l.158-.422-.158-.95.158-.685-.158-.765.08-.079-.08-.343.158-.343q-.079-.079-.131-.21-.027-.133-.027-.238v-.264-.316l.158-.422-.158-.844.237-.185-.079-.079.159-.08.263.08v.185h.185l.237-.185.106.264-.106.079.264.95-.264.342.343.158-.079.264h.158l.343 1.108-.079.079.185.343-.106.079.106.105-.106.238.343.079.185.686-.185.184.343.158.105-.079.159.264-.08.08.238.078.185.422.263.106-.184.079.184.079v.343h.159l.263-.08.923.423.106-.08.158.159.422-.08v-.158l.765-.184.264-.422.079.079.343-.08.079-.263-.08-.079.08-.08-.159-.105.264-.316-.105-.106.343-.158-.159-.079q.08-.184.08-.395 0-.211.131-.37.132-.184.29-.343.185-.184.106-.448l-.264-.079.08-.158-.08-.106-.079.106-.343-.686.08-.264h-.185l-.238-.5.08-.528h-.343l-.08.105-.342-.527-.08.079-.105-.501-.237.079-.106-.264-.079.264v-.264h-.29q-.132 0-.211-.105-.08-.132-.211-.159-.132-.052-.211-.158v-.158l-.343-.08v-.263l-.527-.079-.238-.422-.263.08-.185-.08.185-.106-.607-.237-.686-.686v-.527l-.5-.08-.16-.922h-.263v-.185l-.264-.079-.263-.686.105-.343h-.184v-.843l.079-.343-.159-.343.159-.08-.159-.105v-.079l.159-.264-.08-.158h.185v-.343h-.264v-.343l.08-.342h.184v-.264l-.105-.08.184-.158-.079-.184.501-.686.264-.079v-.422h-.185l.343-.264-.079-.079.686-.606.264.105v-.264l.659-.263.607.184q.079-.184.21-.184.132 0 .211-.027.106-.053.264-.053h.264l.422.159.343-.08.58.264v.159l.791.342-.105.106.263.316.08-.079.342.08.08-.08-.08-.158.264-.185-.184-.079.342-.079-.158-.184.158-.08-.079-.263.08-.08.263.08.185-.158-.106-.08h.528l.079.58-.08.106.08.158-.264.08v.184l.08.08.105-.08.158 1.53-.08.158.08.791-.08.317.08.105-.08.58.16.185-.16.08.16.263-.08.158.08 1.029-.08.079.08.95h-.16v.158h-.342l-.08-.08-.342.08-.08-.159.16-.079-.08-.105.08-.08-.08-.342h-.185v-.08l.106-.158-.448-1.292.105-.079-.105-.08.105-.105-.185-.079-.079-.263h.08l.079.263.184-.343-.422-.079-.184-.422h.184v-.527h-.184l-.08.105v-.184h-.158l-.184-.686-.422-.237-.08-.528h-.369q-.079 0-.079-.132t-.079-.132l.08-.079-.317-.158-.343.08-.528-.264-.079.079-.079-.08q-.184.185-.395.238-.211.026-.396.105-.158.08-.29.264-.132.158-.29.343v-.185h-.158l-.106.105.106.08-.106.079.185.079-.607 1.53.08.527-.16.343.344.158q0 .264.079.396.079.131.158.316.106.158.211.343.132.158.237.316l1.108.844.08-.079.685.422v.185l.844.343v.158l.343.08-.08.105.159.079.105-.08 1.345 1.108.106.422.08-.184q.263.263.474.606.21.343.316.686l.264.686q.132.343.211.685l-.08.238.08.105.106-.105.079 2.4-.185.422.105.606-.606 1.688-.264.185.08.079-.08.079.08.106-.238.342h-.343v.317l-.08-.08-.342.423-.106-.08-.079.344-.343.079.08.105-.422.158-.08-.079-.079.159-.764.079-.264-.159-.08-.158-.078.158h-.106l-.079-.263-.158.422h-.106v-.238h-.237v.238zm2.057-.66v-.184h-.158l-.105.079.184.184zm-3.402-.184v-.343l-.105-.08-.158.423zm3.824-.08l-.079-.078-.079.079.08.079zm.08-.078l-.08-.106-.079.106zm.527-.106v-.316h-.264v.316zm-5.196-2.374l-.105-.079-.08.08.08.079zm-.448-.079l.106-.263h-.264v-.08l.158-.342-.079-.08-.08.159-.342.422.08.079.078-.08.264.264zm-.765-.184v-.501l-.079-.08-.079.58.08.08zm8.018-.159l-.08-.105-.078.105.079.08zm-.686-.105v-.08l-.079-.078-.08.158.08.105zm-6.646-.66l-.08-.105-.078.106.079.079zm4.774-2.4l-.08-.078-.079.079.08.079zm.184-.078v-.264h-.264v.264zm1.609-.343v-.422h-.158l-.185.237.264.264zm-1.187 0v-.185l-.079-.422h-.343v.264l.08.343zm-1.028-.95v-.237l-.159-.185-.105.422zm-2.137-.58l-.079-.105-.079.105.08.08zm4.273.08v-.423l-.264-.606-.079.764.08.264zm-2.057-.08v-.264h-.238v.264zm.685-.343l.185-.606-.422-.159v.501l.158.343zm-4.694-1.371l-.158-.08-.08.08.159.079zm3.508-.264v-.58l-.08-.106-.184.686zm-4.695-.686v-.079l-.079-.079zm4.194-.5l-.106-.08-.08.08.08.078zm-3.165-.607l.079-.58h-.264v.58l.106.105zm-1.372-.159v-.422l-.158-.263-.185.184.264.58zm-.158-.765l-.105-.079-.08.08.08.079zm.237-.263l-.079-.08-.079.08.08.079zm6.831-1.029l-.079-.079-.08.08.08.105zm-6.91-1.609v-.184l-.079-.08-.079.264.08.08zm3.93-2.136l-.264-.079-.079.08.264.078zm3.93-1.108l-.106-.079-.079.08.08.079zM196.601 282.038l-.158-.159-.264.08-.079-.159-.158.08.079-.08-.185-.079-.079.08v-.185h-.237v.184h-.106l-.422-.184v-.238h-.158v-.184h-.264l-.158.105-.422-.343.158-.105-.342-.08h.184v-.237h-.184l.079-.105-.343-.237-.08.158v-.211-.238q0-.131-.078-.21-.08-.106-.159-.106l.08-.264-.264-.079-.158.185-.264-.87.079-.08-.501-.5-.185-.423.264-.184v-.343h-.264v.184l-.237-.764.079-.08q-.08-.079-.185-.158-.079-.105-.079-.237v-.238q0-.131-.079-.21l.08-.185-.16-.264h.16v-.237l-.238-.422h.158l.08-.264-.16-.422.08-.264h-.158l-.08.08v-.423l.159-.342-.08-.159.159-.079-.08-.079.08-.343h-.237v-.263l.158-.08-.158-.079.079-.527h.158v-.158l-.158-.501.158-.106-.158-.079.343-.264-.264-.079v-.079l.158-.08-.158-.263.264-.079v-.264h-.264v-.079l.343-.079v-.264h.158v-.422l-.158-.342-.08.079v-.08l.08-.079-.08-.079q.159-.105.159-.263v-.317q0-.184.079-.316.08-.132.08-.29h.184v-.264l.343-.08.079-.764-.08-.185.765-1.266.238-.079.105-.263.238-.08v-.184l.422-.08v-.158l-.08-.184h.264v-.158l.08.079.078-.08.106.08.158-.422.923-.343.449.079v-.237h.237l.08.079 1.028-.08 1.107.343.08.159.263-.08.158.159.08-.08.949.766v.263l.422.159.686 1.028-.264.158.607.422v.528l.237.079.686 2.453-.08.263.238.502-.08.184.185.501-.184.343.184.264.08-.106v.87l-.08.08.08.58-.08-.08-.184.265.263.422-.184.079.184.079v.527q-.079.501-.184 1.029-.08.5-.132 1.002-.026.501-.158 1.029-.132.5-.37.923l.08.263-.185.238-.237.079.079.105-.158.08.158.079-.08.079.08.263-.264.607h-.158l-.158.316-.185.343.079.106-.237.079v.21q0 .133-.106.186-.079.026-.158.105-.08.08-.08.185h-.184l-.079.237-.264.08-.158.263-.606.343.105.079h-.264l-.079-.08-.422.423-.422-.08-.184.08-.08-.08-.263.08v.158h-.238l-.105-.158-.08.158zm-.58-.501l-.08-.08-.105.08.106.079zm.343-1.003v-.263l.079.263.923.08.264-.185.263.105.238-.105v-.343l.343-.158-.159-.08.343-.184.159-.66-.08-.105.159-.079-.08-.158.264-.185-.079-.58.08-.264v.159h.237v-.159l-.08-.343h.264v-.158l-.079-.264h-.184v-.421l.079-.343h.184v-.159l-.079-.342.343-.264-.343-.264.08-.079-.08-.158.158-.264-.079-.264.08-.158-.08-.501.08-.106-.08-.237.08-.264h.184v-.158l-.264-.185.08-.079-.08-.342.159-.08-.159-.079.08-.105-.08-.08.08-.078-.08-.159.159-.184-.159-.158.159-.343-.08-.185.08-.08-.159-.236.08-.264h-.159v-.264l.158-.343-.079-.079.08-.264-.08-.158.159-.079-.159-.185-.079.106-.105-.448.184-.501-.184-.422-.159-.08v-1.107l.08-.08-.159-.342-.184-.08-.08-.421.264-.106-.422-.5.159-.265-.343-.237v-.185l-.422-.158-.158-.343-.185.08-.158-.264-.08.184-.263-.184-.185.105-.079-.105-.501.343-.08-.08-.342.422h-.185q0 .422-.158.765t-.264.739q-.079.369-.158.765-.079.369-.184.712l-.238.079.159.5-.422 2.744-.159.079.238.5-.08.08.08.607-.08.079.08.158-.08.185.08.158-.159-.158-.079.5.159.264-.08.343h.159v.422l-.08.08.08.078h-.159v.185q.159.237.211.554.053.29.053.606 0 .29.027.58.052.29.132.554l-.159.159.08.079-.08.343h.238l.263 1.107-.079.08.765 1.529-.185.185.343.58zm-1.293-1.028v-.343l.106-.501-.185-.185-.079 1.029.08.079zm-1.846-.343l.08-.158.079.079.079-.264-.343-.264-.08-.158-.078.264.158.237h-.238v.185l.238.158zm.66-.158v-.528l-.08-.079-.079.607.08.079zm5.696-.106v-.079l-.079-.079-.079.158.08.106zm-4.51-.5l-.079-.08-.079.08.08.078zm5.275 0l.08-.08-.238-.264-.185.264.264.158zm-7.12-.344l-.106-.079-.08.08.08.078zm7.041-.263v-.159l-.264-.343-.079.264.264.343zm-.686-1.003l-.079-.079-.079.08.08.078zm.501 0v-.079l-.079-.105-.079.184.08.08zm-6.62-.184v-.08l-.342-.421-.08.184.344.422zm6.726-.08v-.158l-.106-.079-.079.238.08.079zm1.952-.342l.079-.158-.08-.264.08-.422-.08-.08-.263.766.158.263zm-9.442-.343v-.317l-.158-.342-.08.659zm-.158-.765v-.237l-.08-.08-.105.423.106.079zm7.12-.422l-.079-.079-.079.08.08.105zm2.295-.158v-.343l-.08-.08-.157.423zm-9.837-.185l.237-.58-.08-.08-.342.66.08.106zm1.002 0v-.079l.105-.237-.184-.343-.08.66.08.105zm8.756-.422v-.237h-.264v.237zm-2.03-1.107v-.502h-.265v.422l.185.185zm-6.462-.08v-.422l-.159-.421-.105.685.184.238zm7.99-1.53v-.078l-.078-.08-.106.159.106.105zm-.843-.157v-.422l-.106-.08-.079.502.08.079zm-6.119-.607l.08-.158-.344-.185v.448h.159zm-1.45-.422v-.58h-.264v.5l.184.16zm1.345-.158v-.264l.105-.343-.105-.079-.159.686.08.079zm6.725-.08v-.105l.079-.158-.08-.08-.184.344.106.079zm1.108-.527l.079-.58h-.264v.237l.08.185-.08.158.08.08zm-9.178-.079v-.343h-.264v.343zm1.53-.079l-.08-.08-.105.08.105.08zm-.264-.264l-.08-.079-.079.08.08.078zm-1.346-.079v-.264l.08-.237-.343-.185-.264.343.105.08.159-.08.158.422zm8.15-.079v-.264l-.08-.079-.105.343.106.08zm-6.804-.686v-.263l-.422-.238-.08.317.264.263zm-.343-1.028l-.159-.158-.184.158.264.079zm.105-.08l-.105-.078-.08.079zm-1.213-1.344v-.264l-.08-.08-.157.238zm6.04-1.108l-.159-.106-.105.106.184.079zm-5.011-.528l-.08-.079-.079.08.08.105zM213.507 282.328l-.449-.607.08-.158-.264-.712.079-.08-.132-.105-.08-.343-.078.08v-.765l-.264-.106q-.053-.21-.185-.343-.105-.158-.105-.316.026-.185 0-.29-.027-.132-.106-.317-.079-.079-.158-.184-.053-.106-.105-.185-.027-.08-.08-.211-.026-.158-.105-.237l.106-.08-.185-.606.105-.264-.342-.026v-.08l.29-.052-.185-.132.026-.158h-.158l.08-.08-.29-.632-.212.053.053-.607.158-.132-.343-.316-.105.079-.739-2.031.106-.29-.264-.791-.264-.106.211-.158-.606-.923-.08-.95-.316-.29.238-.606-.422-.185.184-.158-.158-.106-.132-.29-.264-.026-.052.527h-.159l-.026.264.053.08-.08.078.159.08.053.184-.317.923.132.264-.132.343.08.105-.212.396.08.079-.08.079-.026 1.108-.105.105.105.712-.29-.554-.185.264.37.449-.106.263h.158l-.079 1.715-.264 1.978.053.158-.184.923.079.105-.132.66.053.29-.132.316.079.08.185-.053.21.633.159.026.053.158-.211.58.316.185.132-.396-.053-.263.08-.08-.053-.078h.158l.053.342.237.027.026-.264.08.37-.132.157.105.106-.185.053.132.369-.105.158-.238-.026-.105-.106-.158.08-.08-.106-.342.158-.317-.37-.21.133.078.105-.5.027v-.185h-.185l-.08.08.106-.238-.237-.027-.027.264h-.685l.026-.184-.58-.053-.211.079-.106-.528-.184-.026-.053-.158-.08.053v-.185l.106-.132-.131-.21.052.131.765-.29.185.105.474-.369.264-.079.185-.343-.185-.765.29-.316-.105-.37.105-.342-.079-.08.185-.158v-.764l.079-.08-.132-.21.211-.554-.053-.343.106-.185v-.765l.079-.079-.238-.21.106-.054-.026-.949.131-.08-.052-.527.237-.606h-.185v-.106l.132-.079-.053-.685.132-.238-.026-.791.105-.053-.105-.105.264-.66.052.159.317-.317-.185-.158-.079.053-.053-.159.08-.184-.053-.08.079-.078-.132-.264.105-.264-.158-.264h.185l.132-.553-.053-.211.08-.053v-.765l.105-.264-.132-.448.237-.66-.105-.527-.264-.026v-.08l.105-.342q-.263.053-.369-.08-.105-.158-.316-.21-.211-.053-.317-.185-.105-.158-.29-.264l-.132-.369.185-.132-.132-.448.448-.132.343.105h.686l.316.106h.712l.317.105.264-.052.158.105.264-.053.422.185.184-.132.158.08.185-.053.29.712-.21.079.237.29-.106.316.317.185-.106.105q.158.264.317.554.158.264.263.58.106.317.159.607.052.29 0 .633l.184.026.185.713h.184l-.105.105.87 2.664-.105.053.237.21.95 3.376.184.027.132 1.055.264.026.369-.923-.29-.448h.132l.343-.66-.396-.21.053-.686.105-.185.264-.053-.211-.448-.105.158.079-.765.079-.079.026-.95.08-.052-.08-.105.185-.08-.08-.079.106-.263-.158-.027.053-.395.079-.08-.053-.184.158-.08-.158-.157.185-.106-.159-.08.027-.342.105-.079-.053-.343h.159l.316-.58-.316-.29.052-.58.29-.159.027-.263-.396-.185v-.08l.106-.184-.08-.079.08-.079-.554-.501-.106.264-.158-.29-.158.079-.422-.211-.053-.422.132-.343-.079-.08.95-.105.738.422.37-.316.184.105.158-.132.08.159.105-.159.079.027.422.105.606-.026.422.132.08-.08q.158.106.131.238v.264q0 .132-.026.263 0 .106-.027.29l-.184-.026-.08-.079-.078.158-.29.053.079.106-.792.158-.052-.08-.211.238.079.08h-.185l-.026.342-.053 2.321-.185.923.106.106-.211.923.105.079-.21.95.105.078-.185.95.08.079-.264.817.052.211-.158.844.053.264-.185.343h.158l-.131.501.079.106-.29 2.189.079 1.054-.211.924.105.105-.21.923.105.106-.159.659v-.158l-.237-.027-.026.238q.079.184.132.343.079.131.052.316-.026.158-.052.343 0 .158.079.316l-.159.739-.079-.027-.343-.105zm1.16-.528l-.079-.105-.08.105.08.08zm-8.888-.975l-.079-.08-.079.08.053.105zm.264-.053l.053-.422-.08-.08-.131.502.079.079zm8.123.897l.053-.343-.264-.027-.053.343zm-5.96-1.03l-.08-.078-.079.158.053.106zm6.382-.738l-.08-.079-.078.053.079.106zm-.053-.342l.238-.422-.29-.554-.212 1.028h.185zm-1.292-.818v-.08l-.053-.105-.105.159.079.079zm1.74-.105v-.159l-.131-.21-.132.342zm-.29-.607l.317-.501-.264-.027-.026.185-.132-.132-.132.106.158.448zm-.105-.633l-.106-.08-.079.08.08.08zm.079-.053l-.053-.132-.132.106zm.343-1.793l.105-.08-.237-.105-.026.158.079.106zm-3.218-.475l.053-.422-.079-.132-.132.528.08.079zm1.635.237v-.158l.106-.184-.317-.185-.052.501zm1.266-.052l.027-.264.132-.317-.343-.026-.132.58zm-1.134-1.477l.027-.185.132-.422-.132-.422-.29 1.002zm1.319-.396v-.079l-.053-.105.132-.58-.237-.027-.211.237.053.528.237.079zm-1.872-.95l.026-.263-.237-.211-.08.053.053.105-.079.08.238.29zm-1.346-.342l.106-.08-.158-.263-.211.448h.184zm.976-.158l-.237-.211-.106.105.238.185zm.238-.053l-.053-.106-.106.08.08.105zm-1.082-.29v-.08l-.052-.078-.106.131.08.106zm-5.09-1.108l-.053-.079-.105.053.08.132zm4.405-.501l.026-.185-.211-.184-.105.343zm.026-.343l-.08-.105-.131.079.106.105zm.105-.95l.027-.263-.185-.158-.132.395zm-1.793-.58l.026-.263.106-.185-.237-.184-.29.131.052.449zm-1.661-.632l.105-.211-.158-.027-.185.158.132.185zm-1.767-4.8l-.08-.08-.105.053.105.106z" style="-inkscape-font-specification:'DEATH FONT ver1.0'"/></g><g aria-label="GO ON" style="line-height:1.25;-inkscape-font-specification:Mate;text-align:center" font-weight="400" font-size="27.995" font-family="DEATH FONT ver1.0" letter-spacing="0" word-spacing="0" text-anchor="middle" fill="#000" stroke-width=".7"><path d="M95.563 322.852v-.082l-.164-.164-.437.164-.274-.082-.082-.191.082-.246-.082-.11-.273.192-.547-.192-.273-.601-.164.164-.082-.274h-.192l-.164-.628h-.191v-.356h-.273v-.164h-.165l-.109-.71h-.355l-.164-.63.082-.355-.274-.082.192-.191-.356-.164.082-.11-.164-.246.082-.19-.273-.63.191-.437-.273-.082-.273-.984.19-.274-.19-.082v-.355l.082.082.109-.437h-.191v-.356q0-.191-.137-.328-.11-.137-.082-.355.054-.22.054-.41l.082-.356.083.11.082-.274h-.247v-.273l.082-.274.274-.082.082-.355h-.191v-.191h-.165v-.082l.083-.082-.083-.082.274-.63.082.083.082-.164h.191v-.356l-.11-.273-.245-.273.164-.63.191.083.082-.082-.082-.164.082-.274-.082-.082.246-.355-.082-.11.082-.081-.082-.082.192-.465-.11-.082.274-.082v-.191l.082.109.11-.191-.11-.082.273-.711h.274v-.192l-.083-.164q.083-.109.083-.218 0-.137.027-.274.055-.136.191-.164.137-.055.219-.164l-.082-.082.547-.164-.192-.273.547-.274v-.218q0-.137.082-.22.082-.108.164-.19.11-.082.191-.164l.793-.356-.164-.11.164-.081.11.082.164-.246.082.082q.11-.192.328-.219.218-.055.355-.082.137-.055.356-.055h.41l.082.082.273-.082.164.082.355-.082.63.356.081-.082 1.176.601.082.274h.355l.274-.082.164-.903h.273l.082.356.11-.164.6-.192q.192.465.192 1.012v1.011q0 .493.028.985.054.464.054 1.011l-.164.547.082.164-.082.082.164.11v.245l-.164.383.082.082-.082.164.164.82-.082.164.164.82-.437.165-.274-.165-.082.082-.437-.082-.082-.273h.246v-.191l-.082-.082.082-.082-.246-.356.246-.109v-.246l-.164-.191-.191.355-.082-.437.191-.192-.273-.082.082-.164q-.164-.191-.274-.328-.082-.137-.136-.355-.028-.219-.137-.383-.082-.191-.082-.383l.082-.246-.082-.11.082-.081-.52-.547-.082-.246.082-.191-.19-.164h.19v-.356l-.082-.11-.273.192-.273-.355-.63-.356.083-.109-.164-.355-.082.273h-.465l-.164-.164-.273.164-.082-.164-.082.082-.274-.082v.355l-.546.356-.083-.082-.19.164.19.082-.355.547h-.191q-.082.519-.274.984-.164.437-.246.984-.082.52-.218 1.012-.137.492-.055 1.038l-.191-.628-.247 1.148h.165l.19-.274v.82l-.108.274h-.165v.437l.165 1.422-.165.547.082.246-.082.11q.082.163.11.3.055.137.055.328v.711l-.165.164.165.082q0 .629.082 1.312.109.656.136 1.285.055.629.192 1.257.136.63.328 1.23l-.11-.081-.082.273q.192 0 .274.055.082.027.109.164.055.137.137.219.11.082.11.273l.3.3.273.274q.137.137.3.137.192 0 .384.082l.52-.356.19-.355.246-.164.11.082.164-.438-.164-.355.52-1.804-.083-.246h-.273v-.356l.082-.191-.082-.191.082-.082-.082-.164.191-.903-.191-.71h.191v-.192l-.273-.246-.082.246-.902-.52.082-.081-.164-.274-.082.164-.11-.355.192-.164-.192-.273.11-.192h.082l.082.11.792-.11v.192l.356.082.547-.274.273.11v.164h.273l.082-.274h.438l-.082.465h.273v-.465l.274.11.164-.11.082.11.355-.11.11.11 1.23-.11.109.11.601-.11.11 1.094-.629.246-.082-.356h-.273v.356l.082.11q-.192.081-.274.273-.082.164-.136.3-.028.137-.082.328-.055.164-.137.328l.082.711-.082.547.082 1.968-.082.082.082 3.308h-.356v.246h-.519l-.355-.71-.465-.247.191-.109-.437-.164-.192-.355-.355.082v.191h-.082l-.082-.11-.191.356h-.164v.274l-.465.082q-.082.109-.082.19 0 .083-.11.138-.081.027-.164.082-.082.054-.164.136zm1.968-.355l-.082-.082-.082.082.082.109zm.547-.52l-.11-.082-.081.082.082.082zm1.86-.082l-.083-.11-.082.11.082.082zm-2.215-.273v-.356l-.11-.082-.082.438.082.082zm1.148-.438l.082-.109-.437-.273v.464h.273zm-1.422-.19l-.082-.083-.109.082.11.082zm-2.952-.438v-.11l-.082-.082-.082.192.082.082zm5.987 0v-.547h-.273v.547zm-5.878-.465l.082-.082-.082-.082.082-.356-.191-.19-.164.71.164.11zm3.91-.875v-.082l.082-.191-.082-.082-.164.355.082.082zm.082-.355v-.465h-.246v.465zm2.323-.547l-.082-.082-.082.082.082.082zm-1.421-2.761l-.082-.082-.11.082.11.082zm-7.846-.164l.082-.547h-.356v.629h.192zm7.764 0l-.11-.11-.082.192.082.082zm-.11-.192v-.273l-.082-.082-.082.437.082.11zm-7.299-.437v-.547l-.355-.164v.355l.082.356zm-1.066-1.176v-.52l-.273-.355-.083.602.083.273zm2.488-1.859v-.355h-.274v.355zm.355-.464v-.164l.082-.082-.52-.903-.19.274.273.164.273.82zm6.616-2.844l-.11-.082-.081.082.082.082zm-7.955-.71v-.192l-.165-.164-.109.356zm7.6-.274l-.11-.082-.082.082.082.082zm-1.258-3.116l-.082-.082-.11.082.11.082zm-.437-.274l-.11-.082-.082.082.082.11zm.956-.984l-.082-.082-.082.082.082.11zM109.56 322.852l-.164-.164-.273.082-.082-.164-.164.082.082-.082-.191-.082-.082.082v-.191h-.246v.191h-.11l-.437-.191v-.246h-.164v-.192h-.274l-.164.11-.437-.356.164-.11-.355-.081h.19v-.246h-.19l.082-.11-.356-.246-.082.164v-.218-.246q0-.137-.082-.22-.082-.108-.164-.108l.082-.274-.273-.082-.164.192-.274-.903.082-.082-.52-.519-.19-.437.273-.192v-.355h-.273v.191l-.247-.793.082-.082q-.082-.082-.19-.164-.083-.11-.083-.246v-.246q0-.136-.082-.219l.082-.19-.164-.274h.164v-.246l-.246-.438h.164l.082-.273-.164-.438.082-.273h-.164l-.082.082v-.437l.164-.356-.082-.164.164-.082-.082-.082.082-.355h-.246v-.274l.164-.082-.164-.082.082-.546h.164v-.164l-.164-.52.164-.11-.164-.081.355-.274-.273-.082v-.082l.164-.082-.164-.273.273-.082v-.273h-.273v-.082l.355-.082v-.274h.164v-.437l-.164-.356-.082.082v-.082l.082-.082-.082-.082q.165-.109.165-.273v-.328q0-.191.082-.328t.082-.3h.19v-.274l.356-.082.082-.793-.082-.191.793-1.313.246-.082.11-.273.246-.082v-.191l.437-.082v-.164l-.082-.192h.273v-.164l.082.082.082-.082.11.082.164-.437.957-.356.464.082v-.246h.246l.082.082 1.067-.082 1.148.356.082.164.273-.082.164.164.082-.082.984.793v.273l.438.164.71 1.066-.273.164.629.438v.547l.246.082.71 2.542-.081.273.246.52-.082.191.191.52-.191.355.191.273.082-.109v.902l-.082.082.082.602-.082-.082-.191.273.273.437-.191.082.191.082v.547q-.082.52-.191 1.066-.082.52-.137 1.04-.027.519-.164 1.066-.136.519-.383.956l.082.274-.19.246-.247.082.082.11-.164.081.164.082-.082.082.082.274-.273.628h-.164l-.164.328-.192.356.082.11-.246.081v.219q0 .137-.11.191-.081.028-.163.11t-.082.19h-.192l-.082.247-.273.082-.164.273-.629.356.11.082h-.274l-.082-.082-.437.437-.438-.082-.191.082-.082-.082-.273.082v.164h-.246l-.11-.164-.082.164zm-.601-.52l-.082-.081-.11.082.11.082zm.355-1.038v-.274l.082.274.957.082.274-.192.273.11.246-.11v-.355l.355-.164-.164-.082.356-.191.164-.684-.082-.11.164-.081-.082-.164.273-.192-.082-.601.082-.273v.164h.246v-.164l-.082-.356h.274v-.164l-.082-.273h-.192v-.438l.082-.355h.192v-.164l-.082-.356.355-.273-.355-.273.082-.082-.082-.164.164-.274-.082-.273.082-.164-.082-.52.082-.109-.082-.246.082-.273h.191v-.164l-.273-.192.082-.082-.082-.355.164-.082-.164-.082.082-.11-.082-.082.082-.081-.082-.165.164-.19-.164-.165.164-.355-.082-.192.082-.082-.164-.246.082-.273h-.164v-.274l.164-.355-.082-.082.082-.273-.082-.164.164-.082-.164-.192-.082.11-.11-.465.192-.52-.192-.437-.164-.082v-1.148l.082-.082-.164-.356-.191-.082-.082-.437.273-.11-.437-.519.164-.273-.355-.246v-.192l-.438-.164-.164-.355-.191.082-.164-.273-.082.191-.274-.191-.191.109-.082-.11-.52.356-.081-.082-.356.437h-.191q0 .438-.164.793-.164.356-.274.766-.082.382-.164.793-.082.382-.191.738l-.246.082.164.52-.438 2.842-.164.082.247.52-.082.082.082.629-.082.082.082.164-.082.19.082.165-.165-.164-.082.52.165.273-.082.355h.164v.438l-.082.082.082.082h-.164v.19q.164.247.218.575.055.3.055.629 0 .3.027.601.055.301.137.574l-.164.164.082.082-.082.356h.246l.273 1.148-.082.082.793 1.586-.191.191.355.601zm-1.34-1.066v-.356l.11-.52-.191-.19-.082 1.066.082.082zm-1.913-.356l.082-.164.082.082.082-.273-.355-.274-.082-.164-.082.274.164.246h-.246v.191l.246.164zm.684-.164v-.547l-.082-.082-.082.63.082.081zm5.905-.11v-.081l-.082-.082-.082.164.082.11zm-4.675-.519l-.082-.082-.082.082.082.082zm5.467 0l.082-.082-.246-.273-.19.273.272.164zm-7.38-.355l-.11-.082-.082.082.082.082zm7.298-.273v-.164l-.273-.356-.082.274.273.355zm-.71-1.04l-.082-.081-.082.082.082.082zm.52 0v-.081l-.083-.11-.082.192.082.082zm-6.863-.19v-.083l-.355-.437-.082.191.355.438zm6.971-.083v-.164l-.109-.082-.082.246.082.082zm2.024-.355l.082-.164-.082-.274.082-.437-.082-.082-.274.793.164.273zm-9.788-.355v-.329l-.164-.355-.082.684zm-.164-.793v-.246l-.082-.082-.11.437.11.082zm7.382-.438l-.082-.082-.082.082.082.11zm2.378-.164v-.355l-.082-.082-.164.437zm-10.197-.191l.246-.602-.082-.082-.355.684.082.11zm1.039 0v-.082l.11-.246-.192-.356-.082.684.082.11zm9.076-.438v-.246h-.273v.246zm-2.105-1.148v-.52h-.273v.438l.191.192zm-6.698-.082v-.437l-.164-.438-.11.711.192.246zm8.284-1.585v-.082l-.082-.082-.11.164.11.109zm-.875-.164v-.438l-.11-.082-.081.52.082.082zm-6.343-.63l.082-.163-.355-.192v.465h.164zm-1.503-.437v-.601h-.274v.52l.192.163zm1.394-.164v-.273l.11-.355-.11-.082-.164.71.082.082zm6.971-.082v-.109l.082-.164-.082-.082-.191.355.11.082zm1.149-.546l.082-.602h-.274v.246l.082.192-.082.164.082.082zm-9.514-.082v-.356h-.274v.356zm1.585-.082l-.082-.082-.109.082.11.082zm-.273-.274l-.082-.082-.082.082.082.082zm-1.394-.082v-.273l.082-.246-.356-.192-.273.356.11.082.163-.082.164.437zm8.447-.082v-.273l-.082-.082-.11.355.11.082zm-7.053-.71v-.274l-.437-.246-.082.328.273.273zm-.355-1.067l-.164-.164-.192.164.274.082zm.109-.082l-.11-.082-.081.082zm-1.258-1.394v-.273l-.082-.082-.164.246zm6.26-1.148l-.163-.11-.11.11.192.082zm-5.193-.547l-.082-.082-.082.082.082.11zM133.837 322.852l-.164-.164-.273.082-.082-.164-.164.082.082-.082-.192-.082-.082.082v-.191h-.246v.191h-.11l-.437-.191v-.246h-.164v-.192h-.273l-.164.11-.437-.356.164-.11-.356-.081h.192v-.246h-.192l.082-.11-.355-.246-.082.164v-.218-.246q0-.137-.082-.22-.082-.108-.164-.108l.082-.274-.274-.082-.164.192-.273-.903.082-.082-.52-.519-.19-.437.273-.192v-.355h-.274v.191l-.246-.793.082-.082q-.082-.082-.191-.164-.082-.11-.082-.246v-.246q0-.136-.082-.219l.082-.19-.164-.274h.164v-.246l-.246-.438h.164l.082-.273-.164-.438.082-.273h-.164l-.082.082v-.437l.164-.356-.082-.164.164-.082-.082-.082.082-.355h-.246v-.274l.164-.082-.164-.082.082-.546h.164v-.164l-.164-.52.164-.11-.164-.081.355-.274-.273-.082v-.082l.164-.082-.164-.273.273-.082v-.273h-.273v-.082l.355-.082v-.274h.164v-.437l-.164-.356-.082.082v-.082l.082-.082-.082-.082q.164-.109.164-.273v-.328q0-.191.082-.328t.082-.3h.191v-.274l.356-.082.082-.793-.082-.191.793-1.313.246-.082.11-.273.245-.082v-.191l.438-.082v-.164l-.082-.192h.273v-.164l.082.082.082-.082.11.082.163-.437.957-.356.465.082v-.246h.246l.082.082 1.066-.082 1.148.356.082.164.274-.082.164.164.082-.082.984.793v.273l.437.164.711 1.066-.273.164.629.438v.547l.246.082.71 2.542-.082.273.247.52-.082.191.19.52-.19.355.19.273.083-.109v.902l-.082.082.082.602-.082-.082-.191.273.273.437-.191.082.19.082v.547q-.081.52-.19 1.066-.082.52-.137 1.04-.027.519-.164 1.066-.137.519-.383.956l.082.274-.191.246-.246.082.082.11-.164.081.164.082-.082.082.082.274-.274.628h-.164l-.164.328-.191.356.082.11-.246.081v.219q0 .137-.11.191-.082.028-.164.11t-.082.19h-.191l-.082.247-.273.082-.164.273-.63.356.11.082h-.273l-.082-.082-.438.437-.437-.082-.191.082-.082-.082-.274.082v.164h-.246l-.11-.164-.081.164zm-.601-.52l-.082-.081-.11.082.11.082zm.355-1.038v-.274l.082.274.957.082.273-.192.274.11.246-.11v-.355l.355-.164-.164-.082.355-.191.164-.684-.082-.11.164-.081-.082-.164.274-.192-.082-.601.082-.273v.164h.246v-.164l-.082-.356h.273v-.164l-.082-.273h-.191v-.438l.082-.355h.191v-.164l-.082-.356.356-.273-.356-.273.082-.082-.082-.164.164-.274-.082-.273.082-.164-.082-.52.082-.109-.082-.246.082-.273h.192v-.164l-.274-.192.082-.082-.082-.355.164-.082-.164-.082.082-.11-.082-.082.082-.081-.082-.165.164-.19-.164-.165.164-.355-.082-.192.082-.082-.164-.246.082-.273h-.164v-.274l.164-.355-.082-.082.082-.273-.082-.164.164-.082-.164-.192-.082.11-.109-.465.191-.52-.191-.437-.164-.082v-1.148l.082-.082-.164-.356-.191-.082-.082-.437.273-.11-.437-.519.164-.273-.356-.246v-.192l-.437-.164-.164-.355-.192.082-.164-.273-.082.191-.273-.191-.191.109-.082-.11-.52.356-.082-.082-.355.437h-.192q0 .438-.164.793-.164.356-.273.766-.082.382-.164.793-.082.382-.191.738l-.247.082.165.52-.438 2.842-.164.082.246.52-.082.082.082.629-.082.082.082.164-.082.19.082.165-.164-.164-.082.52.164.273-.082.355h.164v.438l-.082.082.082.082h-.164v.19q.164.247.219.575.055.3.055.629 0 .3.027.601.055.301.137.574l-.164.164.082.082-.082.356h.246l.273 1.148-.082.082.793 1.586-.192.191.356.601zm-1.34-1.066v-.356l.11-.52-.192-.19-.082 1.066.082.082zm-1.913-.356l.082-.164.082.082.082-.273-.356-.274-.082-.164-.082.274.164.246h-.246v.191l.246.164zm.683-.164v-.547l-.082-.082-.082.63.082.081zm5.905-.11v-.081l-.082-.082-.082.164.082.11zm-4.675-.519l-.082-.082-.082.082.082.082zm5.468 0l.082-.082-.246-.273-.191.273.273.164zm-7.381-.355l-.11-.082-.082.082.082.082zm7.3-.273v-.164l-.274-.356-.082.274.273.355zm-.712-1.04l-.082-.081-.082.082.082.082zm.52 0v-.081l-.082-.11-.082.192.082.082zm-6.862-.19v-.083l-.356-.437-.082.191.356.438zm6.971-.083v-.164l-.11-.082-.081.246.082.082zm2.023-.355l.082-.164-.082-.274.082-.437-.082-.082-.273.793.164.273zm-9.787-.355v-.329l-.164-.355-.082.684zm-.164-.793v-.246l-.082-.082-.11.437.11.082zm7.381-.438l-.082-.082-.082.082.082.11zm2.379-.164v-.355l-.082-.082-.164.437zm-10.198-.191l.247-.602-.082-.082-.356.684.082.11zm1.04 0v-.082l.109-.246-.192-.356-.082.684.082.11zm9.076-.438v-.246h-.274v.246zm-2.105-1.148v-.52h-.274v.438l.192.192zm-6.698-.082v-.437l-.164-.438-.11.711.192.246zm8.283-1.585v-.082l-.082-.082-.11.164.11.109zm-.875-.164v-.438l-.109-.082-.082.52.082.082zm-6.342-.63l.082-.163-.355-.192v.465h.164zm-1.504-.437v-.601h-.273v.52l.191.163zm1.395-.164v-.273l.109-.355-.11-.082-.163.71.082.082zm6.97-.082v-.109l.083-.164-.082-.082-.191.355.109.082zm1.15-.546l.081-.602h-.273v.246l.082.192-.082.164.082.082zm-9.515-.082v-.356h-.273v.356zm1.586-.082l-.082-.082-.11.082.11.082zm-.273-.274l-.082-.082-.082.082.082.082zm-1.395-.082v-.273l.082-.246-.355-.192-.273.356.109.082.164-.082.164.437zm8.448-.082v-.273l-.082-.082-.11.355.11.082zm-7.053-.71v-.274l-.438-.246-.082.328.274.273zm-.356-1.067l-.164-.164-.191.164.273.082zm.11-.082l-.11-.082-.082.082zm-1.258-1.394v-.273l-.082-.082-.164.246zm6.26-1.148l-.164-.11-.109.11.191.082zm-5.194-.547l-.082-.082-.082.082.082.11zM151.361 323.153l-.465-.629.082-.164-.273-.738.082-.082-.137-.11-.082-.355-.082.082v-.793l-.273-.11q-.055-.218-.192-.354-.109-.165-.109-.329.027-.19 0-.3-.027-.137-.11-.328-.081-.082-.163-.192-.055-.11-.11-.191-.027-.082-.082-.219-.027-.164-.109-.246l.11-.082-.192-.629.11-.273-.356-.027v-.082l.3-.055-.19-.137.027-.164h-.164l.082-.082-.301-.656-.219.055.055-.629.164-.137-.356-.328-.109.082-.765-2.105.109-.3-.273-.82-.274-.11.219-.164-.629-.957-.082-.984-.328-.3.246-.63-.437-.19.191-.165-.164-.11-.137-.3-.273-.027-.055.546h-.164l-.027.274.055.082-.082.082.164.082.054.191-.328.957.137.273-.137.356.082.11-.218.41.082.081-.082.082-.028 1.148-.11.11.11.738-.3-.574-.192.273.383.465-.11.273h.165l-.082 1.777-.274 2.05.055.165-.191.957.082.109-.137.683.055.301-.137.328.082.082.191-.054.219.656.164.027.055.164-.219.601.328.192.137-.41-.055-.274.082-.082-.055-.082h.164l.055.356.246.027.027-.273.082.382-.136.164.11.11-.192.055.136.382-.109.164-.246-.027-.11-.11-.163.083-.082-.11-.356.164-.328-.382-.219.136.082.11-.519.027v-.191h-.191l-.082.082.109-.246-.246-.028-.027.274h-.711l.027-.192-.601-.054-.219.082-.11-.547-.19-.028-.055-.164-.082.055v-.191l.109-.137-.137-.219.055.137.793-.3.191.109.492-.383.274-.082.191-.355-.191-.793.3-.328-.109-.383.11-.355-.083-.082.192-.165v-.792l.082-.082-.137-.22.219-.573-.055-.356.11-.19v-.794l.081-.082-.246-.218.11-.055-.028-.984.137-.082-.055-.547.246-.629h-.191v-.11l.137-.081-.055-.711.137-.246-.028-.82.11-.055-.11-.11.274-.683.054.164.329-.328-.192-.164-.082.055-.055-.164.082-.192-.054-.082.082-.082-.137-.273.11-.273-.165-.274h.192l.136-.574-.054-.219.082-.054v-.793l.11-.273-.138-.465.247-.684-.11-.546-.273-.028v-.082l.11-.355q-.274.055-.384-.082-.109-.164-.328-.219-.218-.055-.328-.191-.11-.164-.3-.274l-.137-.382.191-.137-.136-.465.464-.136.356.109h.71l.329.11h.738l.328.109.273-.055.164.11.274-.055.437.191.191-.137.164.082.192-.054.3.738-.218.082.246.3-.11.328.328.192-.109.11q.164.273.328.573.164.274.274.602.109.328.164.629.054.3 0 .656l.191.027.191.738h.192l-.11.11.903 2.76-.11.055.246.22.984 3.498.192.028.136 1.093.274.028.383-.957-.301-.465h.137l.355-.684-.41-.218.055-.711.109-.191.273-.055-.218-.465-.11.164.082-.793.082-.082.028-.984.082-.055-.082-.109.191-.082-.082-.082.11-.273-.165-.028.055-.41.082-.082-.055-.191.164-.082-.164-.164.192-.11-.164-.081.027-.356.11-.082-.055-.355h.164l.328-.602-.328-.3.054-.602.301-.164.027-.273-.41-.192v-.082l.11-.191-.082-.082.082-.082-.575-.52-.109.274-.164-.3-.164.081-.437-.218-.055-.438.137-.355-.082-.082.984-.11.765.438.383-.328.191.11.164-.138.082.164.11-.164.082.028.437.11.629-.028.437.136.082-.082q.164.11.137.246v.274q0 .137-.027.273 0 .11-.027.301l-.192-.027-.082-.082-.082.164-.3.054.081.11-.82.164-.054-.082-.22.246.083.082h-.191l-.028.355-.054 2.406-.192.957.11.11-.22.956.11.082-.219.984.11.082-.192.984.082.082-.273.848.055.219-.164.874.054.274-.191.355h.164l-.137.52.082.109-.3 2.27.082 1.093-.22.957.11.109-.218.957.109.11-.164.683v-.164l-.246-.028-.027.246q.082.192.136.356.082.136.055.328-.027.164-.055.355 0 .164.082.328l-.164.766-.082-.028-.355-.109zm1.203-.547l-.082-.11-.082.11.082.082zm-9.213-1.012l-.082-.082-.082.082.055.11zm.273-.054l.055-.438-.082-.082-.137.52.082.082zm8.42.93l.055-.356-.273-.027-.055.355zm-6.178-1.067l-.082-.082-.082.164.055.11zm6.616-.765l-.082-.082-.082.054.082.11zm-.055-.356l.246-.437-.3-.574-.22 1.066h.192zm-1.34-.847v-.082l-.054-.11-.11.164.083.082zm1.805-.11v-.164l-.137-.218-.136.355zm-.3-.628l.327-.52-.273-.027-.027.191-.137-.136-.137.109.164.465zm-.11-.657l-.11-.082-.081.082.082.082zm.082-.054l-.055-.137-.137.11zm.355-1.86l.11-.081-.246-.11-.028.164.082.11zm-3.335-.491l.055-.438-.082-.136-.137.546.082.082zm1.695.246v-.164l.11-.192-.329-.191-.054.52zm1.312-.055l.028-.273.136-.328-.355-.028-.137.602zm-1.175-1.531l.027-.191.137-.438-.137-.437-.3 1.039zm1.367-.41v-.082l-.055-.11.137-.6-.246-.028-.22.246.056.547.246.082zm-1.941-.984l.027-.274-.246-.218-.082.054.055.11-.082.082.246.3zm-1.395-.356l.11-.082-.164-.273-.22.465h.192zm1.012-.164l-.246-.218-.11.109.246.191zm.246-.054l-.055-.11-.11.082.083.11zm-1.121-.301v-.082l-.055-.082-.11.137.083.109zm-5.276-1.148l-.055-.082-.11.054.083.137zm4.565-.52l.027-.191-.218-.191-.11.355zm.027-.355l-.082-.11-.136.083.11.109zm.11-.984l.027-.274-.191-.164-.137.41zm-1.86-.602l.028-.273.11-.192-.247-.19-.3.136.054.465zm-1.722-.656l.11-.219-.164-.027-.192.164.137.191zm-1.831-4.976l-.082-.082-.11.055.11.11z" style="-inkscape-font-specification:'DEATH FONT ver1.0'"/></g><g aria-label="DEATH NOTE" style="line-height:1.25;-inkscape-font-specification:Mate;text-align:center" font-weight="400" font-size="22.231" font-family="DEATHNOTE Font" letter-spacing="0" word-spacing="0" text-anchor="middle" fill="#fff" stroke="#fff" stroke-width=".5"><path d="M212.289 103.763l-.391-.13v-.13l.76-.63q.89-1.78 1.085-3.734.196-1.976.196-4.017-.261-2.41-.782-4.754-.5-2.366-1.129-4.646h.13v.13q.63.37 1.194.76.587.391 1.346.26v.24q1.65.26 3.43.325 1.78.065 3.3.955l.63.63q.651 2.41 1.346 4.711.695 2.28 1.324 4.69-.369.89-.76 1.845-.369.955-1.129 1.715-1.41.76-2.93 1.215-1.52.435-3.17.565l-.89-.13-1.15.13-.63-.13zm5.449-.76q.39-.39.955-.456.586-.065 1.085-.304l.13-.39q.37 0 .76-.24.391-.26.63-.65l2.04-1.911h.261v-1.39q-.651-2.04-1.346-4.06-.694-2.04-.825-4.32-1.91-.499-3.82-.89-1.89-.39-4.06-.26v.26l.13.63-.13.39q.26 2.41.63 4.647.39 2.214.26 4.754-.13 1.02-.39 1.976-.24.933-.11 2.084h.261v.39l1.26.109q.52-.239 1.15-.109.63.109 1.129-.26zm.52-6.1l-.52-.391-.37-1.26q.261-.499.76-.564.5-.065 1.02-.065.131.37.37.76.26.369.13.89l-.5.63zM225.38 103.72q.824-.956.89-2.258.086-1.303.217-2.54v-5.623q-.13-1.91-.348-3.69-.195-1.803-.608-3.583h-.152q.152-.543-.195-1.02-.347-.5-.347-1.042v.282q.542.543.825 1.237.282.673.694 1.368l1.65.282h6.166q-1.91-.152-3.713.413-1.78.543-3.56.673v.282q.543 1.085.738 2.475.217 1.368.37 2.735 1.497.543 3.147.63 1.65.065 3.43.065-1.65.412-3.234.63-1.564.195-3.083.868-.13 1.52-.413 2.952-.26 1.433-.412 2.953h1.368q.825-.282 1.65-.347.824-.066 1.65-.066l1.78 1.78v-.13q-.956-.542-2.128-.738-1.15-.217-2.388-.217l-3.3 1.216zM245.917 103.958v-.738l-1.998-6.882h-.369l-.52-.912-1.846-.173-1.26 1.259q-.368 1.454-1.085 2.822-.716 1.368-1.802 2.453l-1.997 1.78q2.367-3.408 4.255-6.86 1.889-3.473 3.192-7.294h.173q.543 3.82 2.084 7.294 1.542 3.452 2.823 7.034zM255.165 103.59l-1.563-.175v-.347l.52-.174q.175-1.932.522-3.668.347-1.759.174-3.865-.695 0-1.39-.173-.695-.174-.868-.869l-.543-1.411.174-.521-3.148-.174v.521h-.348l-.868-1.042h.174l1.563.521q.543-.347 1.324-.347h1.476l.543-1.411h.347l.348-.695.347-.174v-.347l-.695-2.106 3.843-.173v.173l-1.216 2.106.695.347v.348l.521.174q.347.52.695.976.369.435.173 1.13h1.064l2.453-.348.521.174 1.042-.521v.52l-.52 1.216h-1.216v-.347q-.717-.347-1.498-.347h-1.65q-.543.868-1.064 1.498-.521.608-1.39 1.129h-.347v.347l.348 4.559-.174 3.495zm-.521-8.75v-.347l-.174-1.932-1.91-.174v1.216q.347.542.955.803.608.26 1.129.434zm1.758-.347l.695-.348.695-1.584h-2.627v1.584l.195.695h.521zm1.39-2.28v-1.41l-1.563-.87-.174-.52h-.347q-.348.52-.348 1.324 0 .782-.195 1.476zm-3.322-.347v-.89l-.173-.695h-.695l-.695 1.585zM271.946 105.934v-.478q-.65-2.258-.825-4.58-.152-2.345-.304-4.777h-.477l-4.364.174-.477-.174q.173 1.78 0 3.387-.152 1.607-.63 3.061 0-3.539-.326-6.838-.325-3.3-1.128-6.535v.174q.803 1.433 1.367 2.974.565 1.52.565 3.3l5.47.152q-.152-1.607.152-3.126.326-1.542.652-2.975v3.213l-.326 6.122q.326.326.326.89 0 .565.173 1.043l-.173 2.41zM283.518 105.413l-.152-.478q.955-2.714 1.671-5.666.717-2.974.565-6.166h.152l4.493 4.32h.304l1.455 1.433v.326l.955.304q-.325-3.191.543-5.992.89-2.8 2.822-5.188l.478-.326q-.803 1.433-1.455 2.887-.63 1.433-1.28 3.04v6.708l.173 1.129-.326.152-2.084-3.04-1.585-.955-.325-.803h-.326v-.326l-.803-.477-1.107-.804v-.325h-.652v.5l.174.954q-.174 2.562-1.368 4.646-1.194 2.063-2.322 4.147zM301.906 103.85q-1.064-.26-2.171-.565-1.086-.325-2.02-1.085-.65-1.107-.716-2.519-.043-1.41-.043-2.822.304-1.085.52-2.106.24-1.02 1.173-1.78l.456-.195.304-.608q1.585-.934 3.3-1.172 1.737-.26 3.582-.066 1.107.152 2.106.543.998.391 1.802 1.303l1.237 1.585.347 4.993q-.173.803-.564 1.498-.39.694-1.02 1.194-1.867 1.064-3.908 1.541-2.04.456-4.385.26zm5.34-1.02q.782-.326 1.455-.87.694-.564 1.346-1.193.781-1.26 1.259-2.584.477-1.324.304-2.865l-.63-1.433-.456-.152v-.304q-1.41-.803-2.909-1.346-1.476-.543-3.17-.369-1.259 0-2.431.239-1.172.217-2.106.825l-.304.5q-.955.933-1.346 2.192-.39 1.237-.217 2.648.13 1.39.521 2.67.391 1.26 1.194 2.324 1.086.173 2.084.455 1.02.283 2.258.13zm-3.278-3.778q-.63-.152-.63-.695v-1.194l.304-.456 1.107-.152q.304.456.456.869.152.39.152 1.02-.304.282-.608.456-.303.152-.781.152zM319.512 103.59l-1.563-.175v-.347l.52-.174q.175-1.932.522-3.668.347-1.759.174-3.865-.695 0-1.39-.173-.695-.174-.868-.869l-.543-1.411.174-.521-3.148-.174v.521h-.348l-.868-1.042h.174l1.563.521q.543-.347 1.324-.347h1.476l.543-1.411h.347l.348-.695.347-.174v-.347l-.695-2.106 3.843-.173v.173l-1.216 2.106.695.347v.348l.521.174q.347.52.695.976.369.435.173 1.13h1.064l2.453-.348.521.174 1.042-.521v.52l-.52 1.216h-1.216v-.347q-.717-.347-1.498-.347h-1.65q-.543.868-1.064 1.498-.521.608-1.39 1.129h-.347v.347l.348 4.559-.174 3.495zm-.521-8.75v-.347l-.174-1.932-1.91-.174v1.216q.347.542.955.803.608.26 1.129.434zm1.758-.347l.695-.348.695-1.584h-2.627v1.584l.195.695h.521zm1.39-2.28v-1.41l-1.563-.87-.174-.52h-.347q-.348.52-.348 1.324 0 .782-.195 1.476zm-3.322-.347v-.89l-.173-.695h-.695l-.695 1.585zM328.283 103.72q.825-.956.89-2.258.086-1.303.217-2.54v-5.623q-.13-1.91-.348-3.69-.195-1.803-.607-3.583h-.152q.152-.543-.196-1.02-.347-.5-.347-1.042v.282q.543.543.825 1.237.282.673.694 1.368l1.65.282h6.166q-1.91-.152-3.712.413-1.78.543-3.56.673v.282q.542 1.085.737 2.475.217 1.368.37 2.735 1.497.543 3.147.63 1.65.065 3.43.065-1.65.412-3.234.63-1.563.195-3.083.868-.13 1.52-.413 2.952-.26 1.433-.412 2.953h1.368q.825-.282 1.65-.347.825-.066 1.65-.066l1.78 1.78v-.13q-.956-.542-2.128-.738-1.15-.217-2.388-.217l-3.3 1.216z" style="-inkscape-font-specification:'DEATHNOTE Font'" transform="scale(.91098 1.09772)"/></g></svg>